<svg xmlns="http://www.w3.org/2000/svg" width="722.803" height="469.023" viewBox="0 0 722.803 469.023">
  <g id="cl-bg3" transform="translate(-1201.371 -333.238)">
    <ellipse id="XMLID_888_" cx="129.029" cy="229.125" rx="129.029" ry="229.125" transform="translate(1419.615 685.105) rotate(-90.311)" fill="#e5f3f9"/>
    <ellipse id="XMLID_723_" cx="129.029" cy="229.125" rx="129.029" ry="229.125" transform="translate(1230.206 593.778) rotate(-90.311)" fill="#e5f3f9"/>
    <ellipse id="XMLID_1357_" cx="129.029" cy="229.125" rx="129.029" ry="229.125" transform="translate(1265.288 745.554) rotate(-90.311)" fill="#e5f3f9"/>
    <ellipse id="XMLID_1358_" cx="73.702" cy="130.805" rx="73.702" ry="130.805" transform="translate(1202.17 721.506) rotate(-90.311)" fill="#e5f3f9"/>
    <path id="XMLID_1359_" d="M743.223,608.419c50.578,29.271,133.01,29.056,183.8-.43,51.009-29.486,51.224-76.836.646-106.107s-133.01-29.056-183.8.43C692.86,531.583,692.644,579.148,743.223,608.419Z" transform="translate(812.977 172.023)" fill="#e5f3f9"/>
    <path id="XMLID_1303_" d="M917.317,546.852c11.192,6.457,29.271,6.457,40.678,0,11.192-6.457,11.407-17,.215-23.46s-29.271-6.457-40.678,0S906.125,540.4,917.317,546.852Z" transform="translate(402.448 216.372)" fill="#e5f3f9"/>
    <path id="XMLID_1362_" d="M637.6,457.387c7.963,4.52,20.662,4.52,28.625,0s7.963-12.053,0-16.572-20.662-4.52-28.625,0C629.634,445.55,629.634,452.868,637.6,457.387Z" transform="translate(1251.978 122.894)" fill="#e5f3f9"/>
    <path id="XMLID_1363_" d="M976.707,427.554c4.95,2.8,12.914,2.8,17.864,0s4.95-7.533,0-10.331-12.913-2.8-17.864,0C971.973,420.237,971.757,424.756,976.707,427.554Z" transform="translate(232.646 97.199)" fill="#e5f3f9"/>
  </g>
</svg>
