<svg xmlns="http://www.w3.org/2000/svg" width="1742.976" height="1076.141" viewBox="0 0 1742.976 1076.141">
  <g id="cl-bg1" transform="translate(-1202.169 -330.771)" opacity="0.38">
    <ellipse id="XMLID_888_" cx="300.147" cy="519.73" rx="300.147" ry="519.73" transform="translate(1311.073 1139.511) rotate(-89.689)" fill="#e5f3f9"/>
    <ellipse id="XMLID_723_" cx="300.147" cy="519.73" rx="300.147" ry="519.73" transform="translate(1838.44 931.064) rotate(-89.689)" fill="#e5f3f9"/>
    <ellipse id="XMLID_1357_" cx="300.147" cy="519.73" rx="300.147" ry="519.73" transform="translate(1758.368 1277.481) rotate(-89.689)" fill="#e5f3f9"/>
    <ellipse id="XMLID_1358_" cx="171.442" cy="296.708" rx="171.442" ry="296.708" transform="translate(2349.871 1222.594) rotate(-89.689)" fill="#e5f3f9"/>
    <path id="XMLID_1359_" d="M1212.655,773.026c-115.441,66.808-303.585,66.317-419.518-.983-116.424-67.3-116.915-175.372-1.473-242.18s303.585-66.317,419.517.983C1327.6,597.654,1328.1,706.217,1212.655,773.026Z" transform="translate(859.375 584.085)" fill="#e5f3f9"/>
    <path id="XMLID_1303_" d="M1021.2,583.148c-25.544,14.737-66.808,14.737-92.844,0-25.544-14.737-26.035-38.808-.491-53.545s66.808-14.737,92.844,0S1046.744,568.411,1021.2,583.148Z" transform="translate(1655.544 734.664)" fill="#e5f3f9"/>
    <path id="XMLID_1362_" d="M710.592,482.987c-18.176,10.316-47.159,10.316-65.335,0s-18.176-27.509,0-37.825,47.159-10.316,65.335,0C728.768,455.969,728.768,472.672,710.592,482.987Z" transform="translate(570.544 417.272)" fill="#e5f3f9"/>
    <path id="XMLID_1363_" d="M1022.322,443.494c-11.3,6.386-29.474,6.386-40.772,0s-11.3-17.193,0-23.579,29.474-6.386,40.772,0C1033.129,426.792,1033.62,437.108,1022.322,443.494Z" transform="translate(1906.427 330.026)" fill="#e5f3f9"/>
  </g>
</svg>
