<svg xmlns="http://www.w3.org/2000/svg" width="447.883" height="639.485" viewBox="0 0 447.883 639.485">
  <g id="fs-aboutimg1" transform="translate(-14.045)">
    <path id="Path_264" data-name="Path 264" d="M617.993,435.426c9.714-43.067,29.143-40.477,29.143-40.477-1.619-4.533-5.181-18.781,19.753-34.324,24.61-15.219,115.6-46.953,115.6-46.953v-5.181l27.848-5.829c27.848-5.829,84.516,0,84.516,0l-8.1-17.162s97.145,0,111.716,36.591-14.248,72.858-14.248,72.858h0c17.162,23.638,31.41,53.753,42.1,90.992a29.8,29.8,0,0,1-.971,19.105l-1.3,3.238c-2.267,6.476-1.619,13.6,2.59,19.105l35.62,71.887a8.455,8.455,0,0,1-3.238,12.3l-28.5,12.953s5.181,112.688-17.486,121.431c-22.667,8.419-68-8.743-71.887-1.3s-4.857,97.792-4.857,97.792L714.489,775.109S733.271,687.355,681.46,626.8a220.766,220.766,0,0,1-17.81-23.315h0C634.831,564.629,607.955,478.17,617.993,435.426Z" transform="translate(-601.802 -284.254)" fill="#3a4d57"/>
    <circle id="Ellipse_19" data-name="Ellipse 19" cx="113.334" cy="113.334" r="113.334" transform="translate(214.822 320.558) rotate(-135)" fill="#fff"/>
    <path id="Path_265" data-name="Path 265" d="M672.138,432.9,648.5,494.749l275.567,99.087L918.238,507.7Z" transform="translate(-567.87 45.649)" fill="#d1d3d4"/>
    <g id="Group_544" data-name="Group 544" transform="translate(67.768 47.62)">
      <g id="Group_524" data-name="Group 524" transform="translate(1.963 1.164)">
        <path id="Path_266" data-name="Path 266" d="M920.538,377.635a36.793,36.793,0,0,0-45.01-27.2,36.793,36.793,0,0,0-45.011-27.2,38.639,38.639,0,0,0-12.3,5.5,49.635,49.635,0,0,0-94.554,22.991,38.512,38.512,0,0,0-13.6.648,36.793,36.793,0,0,0-27.2,45.01,37.187,37.187,0,0,0,17.81,72.211l24.286-5.829,11.981-2.914,120.783-29.467,11.981-2.914,24.286-5.829C913.09,417.788,925.4,397.712,920.538,377.635Z" transform="translate(-654.472 -300.181)" fill="#16d8d8"/>
        <ellipse id="Ellipse_20" data-name="Ellipse 20" cx="31.086" cy="31.086" rx="31.086" ry="31.086" transform="translate(240.053 154.62) rotate(-107.194)" fill="#16d8d8"/>
        <path id="Path_267" data-name="Path 267" d="M661.676,374.685a34.832,34.832,0,1,0,25.581-42.1C668.8,337.123,656.819,355.9,661.676,374.685Z" transform="translate(-483.04 -229.877)" fill="#16d8d8"/>
        <ellipse id="Ellipse_21" data-name="Ellipse 21" cx="37.239" cy="37.239" rx="37.239" ry="37.239" transform="translate(131.673 200.687) rotate(-113.91)" fill="#16d8d8"/>
        <ellipse id="Ellipse_22" data-name="Ellipse 22" cx="37.239" cy="37.239" rx="37.239" ry="37.239" transform="translate(112.384 214.657) rotate(-156.447)" fill="#16d8d8"/>
        <ellipse id="Ellipse_23" data-name="Ellipse 23" cx="37.238" cy="37.238" rx="37.238" ry="37.238" transform="translate(71.034 214.676) rotate(-161.07)" fill="#16d8d8"/>
      </g>
      <g id="Group_525" data-name="Group 525" transform="translate(0)">
        <path id="Path_268" data-name="Path 268" d="M696.307,507.318a43.17,43.17,0,0,0,9.067-.971,42.248,42.248,0,0,0,14.9-7.124,38.908,38.908,0,0,0,30.439,5.181A37.861,37.861,0,0,0,776.29,484,38.75,38.75,0,0,0,836.2,464.574a36.931,36.931,0,0,0,33.353,8.743A36.375,36.375,0,0,0,896.1,447.088a33.857,33.857,0,0,0,20.4,1.619,32.188,32.188,0,0,0,20.077-14.9,32.825,32.825,0,0,0,3.886-24.61,32.353,32.353,0,0,0-23.638-23.962,24.648,24.648,0,0,0-.971-6.8A38.67,38.67,0,0,0,870.52,349.62a37.217,37.217,0,0,0-17.162-22.343,37.677,37.677,0,0,0-29.467-4.533,38.689,38.689,0,0,0-11.333,4.857,50.764,50.764,0,0,0-57.639-26.229,51.553,51.553,0,0,0-39.182,49.868,38.752,38.752,0,0,0-41.125,46.306,37.217,37.217,0,0,0-22.343,17.162,37.678,37.678,0,0,0-4.533,29.467h0a36.732,36.732,0,0,0,10.686,18.458,36.041,36.041,0,0,0,.648,15.543C662.954,495.661,678.821,507.318,696.307,507.318Zm23.962-12.3-.971.648a34.719,34.719,0,0,1-14.572,7.448c-19.1,4.533-38.534-7.124-43.067-26.229a34.4,34.4,0,0,1-.324-15.219l.324-.971-.647-.648a34.721,34.721,0,0,1-10.362-17.486h0a35.8,35.8,0,0,1,26.229-43.067l1.619-.324-.324-1.619A35.8,35.8,0,0,1,704.4,354.477a34.974,34.974,0,0,1,12.953-.648l1.943.324v-1.943c-.971-22.667,14.572-43.067,36.591-48.572a47.628,47.628,0,0,1,54.725,26.229l.971,1.619,1.619-.971a40.316,40.316,0,0,1,11.981-5.5,35.8,35.8,0,0,1,43.067,26.229l.324,1.619,1.619-.324a35.8,35.8,0,0,1,43.067,26.229,27.6,27.6,0,0,1,.971,7.448v1.3l1.3.324a29.313,29.313,0,0,1,22.667,21.7,28.564,28.564,0,0,1-3.562,22.343A29.96,29.96,0,0,1,916.5,445.145a28.692,28.692,0,0,1-20.077-2.267l-1.943-.971-.324,1.943a33.153,33.153,0,0,1-24.61,25.581,33.763,33.763,0,0,1-32.382-9.715l-1.943-2.267-.648,2.914a35.96,35.96,0,0,1-26.229,26.229,35.188,35.188,0,0,1-30.762-7.124l-1.619-1.3-.971,1.943a35.044,35.044,0,0,1-24.286,20.4,36.308,36.308,0,0,1-28.82-5.5Z" transform="translate(-646.53 -299.821)" fill="#fff"/>
      </g>
      <g id="Group_526" data-name="Group 526" transform="translate(160.005 29.176)">
        <rect id="Rectangle_148" data-name="Rectangle 148" width="3.238" height="15.219" transform="matrix(-0.97, -0.244, 0.244, -0.97, 3.14, 15.549)" fill="#fff"/>
      </g>
      <g id="Group_527" data-name="Group 527" transform="translate(140.445 41.59)">
        <path id="Path_269" data-name="Path 269" d="M716.253,330.265l3.238-.971c-.324-1.3-3.562-11.981-14.9-15.543-11.981-3.886-21.372,3.886-21.7,4.21l1.943,2.59c.324-.324,8.419-7.124,18.458-3.562A20.506,20.506,0,0,1,716.253,330.265Z" transform="translate(-682.9 -312.665)" fill="#fff"/>
      </g>
      <g id="Group_530" data-name="Group 530" transform="translate(68.235 51.968)">
        <g id="Group_528" data-name="Group 528" transform="translate(1.526 0)">
          <rect id="Rectangle_149" data-name="Rectangle 149" width="15.219" height="3.238" transform="matrix(-0.585, -0.811, 0.811, -0.585, 8.899, 14.239)" fill="#fff"/>
        </g>
        <g id="Group_529" data-name="Group 529" transform="translate(0 8.453)">
          <path id="Path_270" data-name="Path 270" d="M706.6,341.211h3.238c0-.324,0-11.01,9.067-16.515,8.743-5.5,17.81-1.3,18.457-1.3l1.3-2.914a23.243,23.243,0,0,0-21.372,1.3C706.924,328.258,706.6,340.563,706.6,341.211Z" transform="translate(-706.6 -318.48)" fill="#fff"/>
        </g>
      </g>
      <g id="Group_533" data-name="Group 533" transform="translate(29.228 89.952)">
        <g id="Group_531" data-name="Group 531" transform="translate(0 6.982)">
          <rect id="Rectangle_150" data-name="Rectangle 150" width="8.743" height="3.238" transform="translate(7.878 6.708) rotate(-154.309)" fill="#fff"/>
        </g>
        <g id="Group_532" data-name="Group 532" transform="translate(4.358)">
          <path id="Path_271" data-name="Path 271" d="M723.29,360.953l2.915-1.619c-.324-.324-5.181-9.714,0-18.781s15.219-9.715,15.543-9.715l-.324-3.238c-1.3,0-12.3.971-18.134,11.334C717.462,349.943,723.29,360.629,723.29,360.953Z" transform="translate(-720.7 -327.6)" fill="#fff"/>
        </g>
      </g>
      <g id="Group_534" data-name="Group 534" transform="translate(18.554 138.524)">
        <path id="Path_272" data-name="Path 272" d="M743.052,373.686l.971-3.238c-1.943-.648-8.743-2.914-12.3-10.038a19.506,19.506,0,0,1-.971-16.515l-2.914-1.3a24.325,24.325,0,0,0,1.3,19.429C733.013,370.124,740.785,373.039,743.052,373.686Z" transform="translate(-726.4 -342.6)" fill="#fff"/>
      </g>
      <g id="Group_535" data-name="Group 535" transform="translate(55.93 172.525)">
        <path id="Path_273" data-name="Path 273" d="M726.462,364.11h.971c10.038-.324,15.867-7.124,17.486-9.067l-2.591-1.943a20.53,20.53,0,0,1-15.219,7.771,21.16,21.16,0,0,1-15.543-6.152l-2.267,2.267C711.243,358.6,717.071,364.11,726.462,364.11Z" transform="translate(-709.3 -353.1)" fill="#fff"/>
      </g>
      <g id="Group_536" data-name="Group 536" transform="translate(109.683 157.629)">
        <path id="Path_274" data-name="Path 274" d="M701.548,359.51a43.171,43.171,0,0,0,9.067-.971,36.743,36.743,0,0,0,14.572-7.448l-1.943-2.59a33.62,33.62,0,0,1-28.5,7.124l-.648,3.238A49.1,49.1,0,0,0,701.548,359.51Z" transform="translate(-694.1 -348.5)" fill="#fff"/>
      </g>
      <g id="Group_537" data-name="Group 537" transform="translate(165.056 129.781)">
        <path id="Path_275" data-name="Path 275" d="M690.172,357.062a22.006,22.006,0,0,0,6.153-.971c11.657-3.562,14.9-14.9,14.9-15.219l-3.238-.971c0,.324-2.914,10.038-12.953,12.953-9.391,2.914-16.514-2.59-17.486-3.238L675.6,352.2C676.9,352.853,682.4,357.062,690.172,357.062Z" transform="translate(-675.6 -339.9)" fill="#fff"/>
      </g>
      <g id="Group_538" data-name="Group 538" transform="translate(222.695 81.533)">
        <path id="Path_276" data-name="Path 276" d="M683.245,358.677a23.78,23.78,0,0,0,.648-16.191c-2.914-9.067-11.333-15.867-21.7-17.486l-.648,3.238c9.391,1.619,16.838,7.448,19.105,15.219,1.943,5.829.324,11.333-.648,14.248Z" transform="translate(-661.55 -325)" fill="#fff"/>
      </g>
      <g id="Group_539" data-name="Group 539" transform="translate(240.285 84.96)">
        <rect id="Rectangle_151" data-name="Rectangle 151" width="3.238" height="29.145" transform="matrix(-0.272, -0.962, 0.962, -0.272, 0.882, 11.057)" fill="#fff"/>
      </g>
      <g id="Group_540" data-name="Group 540" transform="translate(183.993 143.982)">
        <rect id="Rectangle_152" data-name="Rectangle 152" width="17.485" height="3.238" transform="translate(3.433 17.781) rotate(-101.321)" fill="#fff"/>
      </g>
      <g id="Group_541" data-name="Group 541" transform="translate(123.914 165.458)">
        <rect id="Rectangle_153" data-name="Rectangle 153" width="16.191" height="3.238" transform="matrix(-0.224, -0.975, 0.975, -0.224, 3.62, 16.505)" fill="#fff"/>
      </g>
      <g id="Group_542" data-name="Group 542" transform="translate(72.348 181.886)">
        <rect id="Rectangle_154" data-name="Rectangle 154" width="3.238" height="15.219" transform="translate(3.238 15.263) rotate(-179.208)" fill="#fff"/>
      </g>
      <g id="Group_543" data-name="Group 543" transform="translate(12.51 155.619)">
        <rect id="Rectangle_155" data-name="Rectangle 155" width="3.238" height="10.039" transform="translate(1.485 7.481) rotate(-117.295)" fill="#fff"/>
      </g>
    </g>
    <g id="Group_547" data-name="Group 547" transform="translate(234.118 316.965)">
      <g id="Group_545" data-name="Group 545" transform="translate(6.476)">
        <rect id="Rectangle_156" data-name="Rectangle 156" width="6.476" height="130.174" fill="#fff"/>
      </g>
      <g id="Group_546" data-name="Group 546" transform="translate(0 127.259)">
        <path id="Path_277" data-name="Path 277" d="M699.629,422.3l-9.714,16.838L680.2,422.3Z" transform="translate(-680.2 -422.3)" fill="#fff"/>
      </g>
    </g>
    <g id="Group_550" data-name="Group 550" transform="translate(191.051 316.965)">
      <g id="Group_548" data-name="Group 548" transform="translate(6.476 13.924)">
        <rect id="Rectangle_157" data-name="Rectangle 157" width="6.476" height="130.174" fill="#fff"/>
      </g>
      <g id="Group_549" data-name="Group 549" transform="translate(0)">
        <path id="Path_278" data-name="Path 278" d="M693.5,399.515,703.215,383l9.714,16.515Z" transform="translate(-693.5 -383)" fill="#fff"/>
      </g>
    </g>
    <g id="Group_553" data-name="Group 553" transform="translate(331.759 298.504)">
      <g id="Group_551" data-name="Group 551" transform="translate(0 0)">
        <rect id="Rectangle_158" data-name="Rectangle 158" width="16.192" height="3.238" transform="translate(11.45 13.739) rotate(-135.004)" fill="#fff"/>
      </g>
      <g id="Group_552" data-name="Group 552" transform="translate(0.168 0.045)">
        <rect id="Rectangle_159" data-name="Rectangle 159" width="3.238" height="16.191" transform="translate(2.29 13.738) rotate(-135)" fill="#fff"/>
      </g>
    </g>
    <g id="Group_556" data-name="Group 556" transform="translate(163.527 275.517)">
      <g id="Group_554" data-name="Group 554" transform="translate(0 6.8)">
        <rect id="Rectangle_160" data-name="Rectangle 160" width="16.191" height="3.238" fill="#fff"/>
      </g>
      <g id="Group_555" data-name="Group 555" transform="translate(6.476)">
        <rect id="Rectangle_161" data-name="Rectangle 161" width="3.238" height="16.191" fill="#fff"/>
      </g>
    </g>
    <g id="Group_557" data-name="Group 557" transform="translate(337.091 210.43)">
      <rect id="Rectangle_162" data-name="Rectangle 162" width="3.238" height="77.392" transform="translate(0)" fill="#fff"/>
    </g>
    <g id="Group_558" data-name="Group 558" transform="translate(328.004 33.627)">
      <path id="Path_279" data-name="Path 279" d="M660.192,311.043a7.772,7.772,0,1,0-7.771-7.772C652.1,307.481,655.658,311.043,660.192,311.043Zm0-12.3a4.533,4.533,0,1,1-4.533,4.533C655.335,300.681,657.6,298.738,660.192,298.738Z" transform="translate(-652.4 -295.5)" fill="#fff"/>
    </g>
    <g id="Group_559" data-name="Group 559" transform="translate(347.433 113.933)">
      <path id="Path_280" data-name="Path 280" d="M654.192,335.843a7.772,7.772,0,1,0-7.772-7.771C646.1,332.281,649.659,335.843,654.192,335.843Zm0-12.305a4.533,4.533,0,1,1-4.533,4.533C649.335,325.481,651.6,323.538,654.192,323.538Z" transform="translate(-646.4 -320.3)" fill="#fff"/>
    </g>
    <g id="Group_560" data-name="Group 560" transform="translate(315.052 259.326)">
      <path id="Path_281" data-name="Path 281" d="M664.192,380.743a7.772,7.772,0,1,0-7.771-7.772C656.1,377.181,659.658,380.743,664.192,380.743Zm0-12.3a4.533,4.533,0,1,1-4.533,4.533C659.335,370.381,661.6,368.438,664.192,368.438Z" transform="translate(-656.4 -365.2)" fill="#fff"/>
    </g>
    <g id="Group_561" data-name="Group 561" transform="translate(293.7 259.326)">
      <path id="Path_282" data-name="Path 282" d="M670.772,380.743A7.772,7.772,0,1,0,663,372.972,7.671,7.671,0,0,0,670.772,380.743Zm0-12.3a4.533,4.533,0,1,1-4.533,4.533A4.427,4.427,0,0,1,670.772,368.438Z" transform="translate(-663 -365.2)" fill="#fff"/>
    </g>
    <g id="Group_562" data-name="Group 562" transform="translate(271.357 39.78)">
      <rect id="Rectangle_163" data-name="Rectangle 163" width="57.963" height="3.238" transform="translate(0)" fill="#fff"/>
    </g>
    <g id="Group_563" data-name="Group 563" transform="translate(279.776 247.669)">
      <rect id="Rectangle_164" data-name="Rectangle 164" width="58.934" height="3.238" transform="translate(0)" fill="#fff"/>
    </g>
    <g id="Group_564" data-name="Group 564" transform="translate(258.728 28.446)">
      <path id="Path_283" data-name="Path 283" d="M674.1,308.472h14.572V293.9H674.1Zm11.333-3.238h-8.1v-8.1h8.1Z" transform="translate(-674.1 -293.9)" fill="#fff"/>
    </g>
    <g id="Group_565" data-name="Group 565" transform="translate(336.768 208.811)">
      <path id="Path_284" data-name="Path 284" d="M650.324,364.172h14.248V349.6H650v14.572Zm11.01-3.238h-8.1v-8.1h8.1Z" transform="translate(-650 -349.6)" fill="#fff"/>
    </g>
    <g id="Group_566" data-name="Group 566" transform="translate(114.63 273.25)">
      <path id="Path_285" data-name="Path 285" d="M727.062,390.224l10.362-10.362L727.062,369.5,716.7,379.862Zm5.829-10.038-5.5,5.5-5.5-5.5,5.5-5.5Z" transform="translate(-716.7 -369.5)" fill="#fff"/>
    </g>
    <g id="Group_567" data-name="Group 567" transform="translate(87.43 273.25)">
      <path id="Path_286" data-name="Path 286" d="M735.462,390.224l10.362-10.362L735.462,369.5,725.1,379.862Zm5.5-10.038-5.5,5.5-5.5-5.5,5.5-5.5Z" transform="translate(-725.1 -369.5)" fill="#fff"/>
    </g>
    <g id="Group_568" data-name="Group 568" transform="translate(170.003 260.945)">
      <rect id="Rectangle_165" data-name="Rectangle 165" width="3.238" height="14.896" transform="translate(0)" fill="#fff"/>
    </g>
    <g id="Group_569" data-name="Group 569" transform="translate(65.411 117.171)">
      <rect id="Rectangle_166" data-name="Rectangle 166" width="3.238" height="21.048" transform="translate(0)" fill="#fff"/>
    </g>
    <g id="Group_570" data-name="Group 570" transform="translate(76.42 84.466)">
      <rect id="Rectangle_167" data-name="Rectangle 167" width="3.238" height="43.067" transform="translate(0)" fill="#fff"/>
    </g>
    <g id="Group_571" data-name="Group 571" transform="translate(89.697 312.432)">
      <rect id="Rectangle_168" data-name="Rectangle 168" width="77.716" height="3.238" fill="#fff"/>
    </g>
    <g id="Group_572" data-name="Group 572" transform="translate(212.747 292.679)">
      <rect id="Rectangle_169" data-name="Rectangle 169" width="31.086" height="3.238" transform="translate(0)" fill="#fff"/>
    </g>
    <g id="Group_573" data-name="Group 573" transform="translate(267.148 301.422)">
      <rect id="Rectangle_170" data-name="Rectangle 170" width="12.629" height="3.238" fill="#fff"/>
    </g>
    <g id="Group_574" data-name="Group 574" transform="translate(353.606 90.942)">
      <rect id="Rectangle_171" data-name="Rectangle 171" width="3.238" height="24.286" transform="translate(0)" fill="#fff"/>
    </g>
    <g id="Group_575" data-name="Group 575" transform="translate(30.115 227.916)">
      <rect id="Rectangle_172" data-name="Rectangle 172" width="28.172" height="3.238" fill="#fff"/>
    </g>
    <g id="Group_576" data-name="Group 576" transform="translate(336.768 80.256)">
      <rect id="Rectangle_173" data-name="Rectangle 173" width="33.677" height="3.238" transform="translate(0)" fill="#fff"/>
    </g>
    <g id="Group_580" data-name="Group 580" transform="translate(344.216 247.669)">
      <g id="Group_577" data-name="Group 577" transform="translate(53.106)">
        <rect id="Rectangle_174" data-name="Rectangle 174" width="4.857" height="3.238" transform="translate(0)" fill="#fff"/>
      </g>
      <g id="Group_578" data-name="Group 578" transform="translate(14.571)">
        <path id="Path_287" data-name="Path 287" d="M638.7,364.838h9.715V361.6H638.7Zm19.429,0h9.715V361.6h-9.715Z" transform="translate(-638.7 -361.6)" fill="#fff"/>
      </g>
      <g id="Group_579" data-name="Group 579" transform="translate(0)">
        <rect id="Rectangle_175" data-name="Rectangle 175" width="4.857" height="3.238" fill="#fff"/>
      </g>
    </g>
    <g id="Group_581" data-name="Group 581" transform="translate(60.877 249.936)">
      <rect id="Rectangle_176" data-name="Rectangle 176" width="17.162" height="3.238" transform="translate(0)" fill="#fff"/>
    </g>
    <g id="Group_582" data-name="Group 582" transform="translate(78.039 263.86)">
      <rect id="Rectangle_177" data-name="Rectangle 177" width="74.477" height="3.238" fill="#fff"/>
    </g>
    <g id="Group_583" data-name="Group 583" transform="translate(139.888 296.889)">
      <rect id="Rectangle_178" data-name="Rectangle 178" width="3.238" height="17.162" transform="translate(0)" fill="#fff"/>
    </g>
    <g id="Group_584" data-name="Group 584" transform="translate(78.039 97.095)">
      <rect id="Rectangle_179" data-name="Rectangle 179" width="44.363" height="3.238" fill="#fff"/>
    </g>
    <g id="Group_585" data-name="Group 585" transform="translate(282.691 41.399)">
      <rect id="Rectangle_180" data-name="Rectangle 180" width="3.238" height="35.62" transform="translate(0)" fill="#fff"/>
    </g>
    <g id="Group_586" data-name="Group 586" transform="translate(335.149 67.952)">
      <rect id="Rectangle_181" data-name="Rectangle 181" width="3.238" height="66.058" transform="translate(0)" fill="#fff"/>
    </g>
  </g>
</svg>
