<svg xmlns="http://www.w3.org/2000/svg" width="962.286" height="594.131" viewBox="0 0 962.286 594.131">
  <g id="fs-mainimg2" transform="translate(-869.169 -277.657)">
    <ellipse id="XMLID_888_" cx="165.709" cy="286.94" rx="165.709" ry="286.94" transform="translate(929.294 724.158) rotate(-89.689)" fill="#e5f3f9"/>
    <ellipse id="XMLID_723_" cx="165.709" cy="286.94" rx="165.709" ry="286.94" transform="translate(1220.45 609.075) rotate(-89.689)" fill="#e5f3f9"/>
    <ellipse id="XMLID_1357_" cx="165.709" cy="286.94" rx="165.709" ry="286.94" transform="translate(1176.243 800.33) rotate(-89.689)" fill="#e5f3f9"/>
    <ellipse id="XMLID_1358_" cx="94.652" cy="163.81" rx="94.652" ry="163.81" transform="translate(1502.808 770.027) rotate(-89.689)" fill="#e5f3f9"/>
    <path id="XMLID_1359_" d="M985.474,641.806c-63.734,36.884-167.607,36.613-231.613-.542-64.277-37.156-64.548-96.822-.814-133.706s167.607-36.613,231.613.542C1048.937,544.984,1049.209,604.921,985.474,641.806Z" transform="translate(363.939 202.488)" fill="#e5f3f9"/>
    <path id="XMLID_1303_" d="M970.922,554.214c-14.1,8.136-36.884,8.136-51.259,0-14.1-8.136-14.374-21.426-.271-29.562s36.884-8.136,51.259,0S985.025,546.078,970.922,554.214Z" transform="translate(712.35 268.382)" fill="#e5f3f9"/>
    <path id="XMLID_1362_" d="M675.222,462.58c-10.035,5.7-26.036,5.7-36.071,0s-10.035-15.188,0-20.883,26.036-5.7,36.071,0C685.257,447.663,685.257,456.884,675.222,462.58Z" transform="translate(237.544 129.489)" fill="#e5f3f9"/>
    <path id="XMLID_1363_" d="M1000.264,430.787c-6.238,3.526-16.273,3.526-22.51,0s-6.238-9.492,0-13.018,16.272-3.526,22.51,0C1006.23,421.566,1006.5,427.262,1000.264,430.787Z" transform="translate(822.139 91.309)" fill="#e5f3f9"/>
  </g>
</svg>
