<svg xmlns="http://www.w3.org/2000/svg" width="561.632" height="492.914" viewBox="0 0 561.632 492.914">
  <g id="fs-mainimg1" transform="translate(-1003.129 -258)">
    <g id="brain" transform="translate(247.366 -110.2)">
      <path id="Path_238" data-name="Path 238" d="M1201.759,586.221c0-2-2-3.991-3.992-5.987,5.987-9.978,7.983-19.956,7.983-31.93,0-27.938-15.965-49.89-39.912-59.868-3.991-13.969-13.969-29.934-25.942-41.908a105.69,105.69,0,0,0-49.891-27.938c-9.978-19.956-31.929-33.926-55.876-33.926-7.983,0-15.965,2-23.948,3.991A45.412,45.412,0,0,0,972.264,368.7q-17.96,0-29.935,11.974c-15.965-5.986-33.925-9.978-51.885-7.982-25.943,2-49.89,15.965-63.859,31.93-5.986-2-11.974-3.991-17.961-3.991-9.978,0-19.956,3.991-27.938,9.978h0c-7.983,5.986-11.974,13.969-15.965,21.952h-2c-35.921,0-63.86,27.938-63.86,63.86v2c-19.957,17.96-29.934,49.89-25.943,85.81,3.992,37.917,23.948,67.85,49.89,77.829,2,0,2,0,3.991,2,5.987,2,13.97,3.991,21.952,2,5.986,0,11.973-3.991,17.96-5.987,7.983,5.987,17.961,7.982,27.94,7.982,5.986,0,13.969-2,19.955-3.991a94.087,94.087,0,0,0,11.974,29.934c17.961,27.938,47.895,43.9,69.846,29.934l25.943,7.982c31.929,13.969,79.824,45.9,87.807,113.749h49.89l-9.978-71.842h0c5.986,2,13.969,2,21.951,2,19.957,0,37.917-5.987,53.881-13.97a27.548,27.548,0,0,0,7.983-5.986q26.942-20.955,29.935-53.882h0v-5.987c0-5.986,0-11.974-2-17.96v-2c29.934-5.986,53.881-31.93,53.881-63.86v-3.992C1207.746,600.189,1205.749,592.207,1201.759,586.221ZM892.44,723.918h0c1.994,0,1.994,2,3.991,2a6.18,6.18,0,0,0-3.991-2Zm11.974,3.992Z" transform="translate(101.666 9.478)" fill="#fff"/>
      <g id="Group_523" data-name="Group 523" transform="translate(755.763 368.2)">
        <path id="Path_239" data-name="Path 239" d="M816.917,391.835s-77.829-3.991-85.81-7.982c-5.986-3.991-3.991,37.917-41.907,61.864l23.947,31.93s37.918,11.974,77.83-11.974C810.931,453.7,822.906,435.738,816.917,391.835Z" transform="translate(-329.124 -76.529)" fill="#5fb985"/>
        <path id="Path_240" data-name="Path 240" d="M687.511,401.269c2,11.974,11.974,15.965,13.969,19.956,9.978,15.965,19.957,37.917,23.948,59.868h23.948s-5.986-59.868-9.977-67.85c-2-3.991-3.992-5.986-5.988-9.978s-9.977,2-13.969,0c-5.986-3.991-5.986-11.974-15.965-15.965C697.489,387.3,685.515,391.291,687.511,401.269Z" transform="translate(-365.353 -6.14)" fill="#2f5a6b"/>
        <path id="Path_241" data-name="Path 241" d="M784.379,375.3s43.9,15.965,29.934,75.833c0,0,25.943,65.855-37.917,87.807l-73.838-2s-13.969-59.868-9.977-65.855c1.994-2,41.906,2,67.851-21.951C776.4,433.173,784.379,375.3,784.379,375.3Z" transform="translate(-278.626 -233.612)" fill="#de3f18"/>
        <path id="Path_242" data-name="Path 242" d="M777.283,376.3s9.978,41.908-11.973,79.824C751.341,482.067,723.4,502.023,679.5,512c0,0,11.972,61.864,59.867,57.872,37.917-2,87.807,31.93,85.811,33.926,0,0,2-5.987,11.974-9.978,15.965-7.982,49.89-19.956,57.873-51.886,11.973-49.89,27.938-25.943,27.938-25.943l-9.978-67.85S907,436.168,889.038,434.172C829.169,430.182,791.252,426.19,777.283,376.3Z" transform="translate(-512.998 -214.656)" fill="#64acbb"/>
        <path id="Path_243" data-name="Path 243" d="M722.524,407.541c17.961-23.948,87.807-65.855,121.732-7.982,0,0,41.906-3.991,73.837,61.864,0,0-11.972,49.89-17.96,67.85S844.256,563.2,822.3,553.22c-27.938-33.925-109.758,15.965-135.7-57.872C676.626,473.4,708.556,425.5,722.524,407.541Z" transform="translate(-414.335 -327.717)" fill="#fec111"/>
        <path id="Path_244" data-name="Path 244" d="M728.294,636.963c-17.961,0-39.912-15.965-45.9-33.926-27.94-73.837,11.973-109.758,13.969-111.754l2-3.991V483.3c0-3.991,2-47.894,55.877-53.881h9.978s1.994-35.921,47.9-27.938l13.969-5.987c5.986-5.986,49.89-41.908,101.775-17.96l5.986,2,3.992-2s11.973-7.982,25.943-7.982c5.986,0,17.96,3.991,23.947,7.982-21.952,9.978-47.9,39.912-63.86,75.833-5.987,11.974-19.957,27.938-21.952,47.894-1.994,15.965,3.992,69.846-21.951,97.785-21.951,23.948-69.846,31.93-79.824,35.921-21.951,7.982-45.9-5.987-45.9-3.991h0C754.237,632.972,740.269,636.963,728.294,636.963Z" transform="translate(-645.609 -345.605)" fill="#f7941f"/>
        <g id="Group_522" data-name="Group 522">
          <g id="Group_501" data-name="Group 501" transform="translate(132.048 216.694)">
            <path id="Path_245" data-name="Path 245" d="M698.256,469.687c-1.994,0-1.994,0-3.991-2,0,0-19.957-17.96-15.965-39.912,2-17.96,17.961-33.925,45.9-47.894,2-2,5.986,0,7.983,2s0,5.986-2,7.982c-23.947,11.974-37.917,23.948-39.912,37.916-1.994,15.965,11.974,29.934,11.974,29.934a6.07,6.07,0,0,1,0,7.982C702.248,469.687,700.253,469.687,698.256,469.687Z" transform="translate(-677.773 -379.058)" fill="#3d4655"/>
          </g>
          <g id="Group_502" data-name="Group 502" transform="translate(66.011 136.986)">
            <path id="Path_246" data-name="Path 246" d="M705.108,461.586h-1.994c-23.947-7.982-33.926-35.921-25.943-57.873,7.983-23.948,35.92-33.925,57.873-25.942,3.991,2,3.991,3.992,3.991,7.982-2,3.991-3.991,3.991-7.983,3.991-17.961-5.987-35.92,2-41.908,19.956s2,35.921,19.957,41.907c3.991,2,3.991,3.991,3.991,7.982C709.1,459.59,707.1,461.586,705.108,461.586Z" transform="translate(-674.465 -375.064)" fill="#3d4655"/>
          </g>
          <g id="Group_503" data-name="Group 503" transform="translate(186.457 173.618)">
            <path id="Path_247" data-name="Path 247" d="M688.483,466.7q-5.986,0-5.986-5.987t5.986-5.986c17.961,0,31.929-15.965,31.929-33.926s-15.964-31.93-33.926-31.93q-5.986,0-5.986-5.986t5.986-5.987c23.948,0,45.9,19.956,45.9,43.9,2,23.946-17.96,45.9-43.9,45.9Z" transform="translate(-680.5 -376.9)" fill="#3d4655"/>
          </g>
          <g id="Group_504" data-name="Group 504" transform="translate(301.419 298.558)">
            <path id="Path_248" data-name="Path 248" d="M716.978,431.837c-11.974,0-23.948-7.982-29.934-19.956-2-3.991,0-5.987,3.991-7.982s5.986,0,7.983,3.991c3.992,9.978,15.965,13.969,25.943,9.978s13.969-15.965,9.978-25.942c-2-3.991,0-5.987,3.991-7.982s5.986,0,7.983,3.991a31,31,0,0,1-17.961,39.912C724.961,431.837,720.969,431.837,716.978,431.837Z" transform="translate(-686.261 -383.161)" fill="#3d4655"/>
          </g>
          <g id="Group_505" data-name="Group 505" transform="translate(301.376 103.694)">
            <path id="Path_249" data-name="Path 249" d="M734.98,421.367h-3.992c-2-2-3.991-5.987-2-7.982,5.988-7.982,2-19.956-5.986-25.943s-19.955-2-25.943,5.987c-1.994,2-5.986,3.991-7.983,2s-3.991-5.986-1.994-7.982c9.977-13.969,27.938-17.96,43.9-9.978,13.969,9.978,17.961,27.938,9.978,43.9Z" transform="translate(-686.259 -373.396)" fill="#3d4655"/>
          </g>
          <g id="Group_506" data-name="Group 506" transform="translate(303.062 364.059)">
            <path id="Path_250" data-name="Path 250" d="M695.461,435.474c-1.994,0-3.991-2-5.986-3.991-7.983-15.965,0-33.926,15.965-41.908s33.926,0,41.907,15.965c2,3.991,0,5.987-2,7.982-3.991,2-5.986,0-7.983-2-3.991-9.978-15.965-13.97-25.943-9.978s-13.969,15.965-9.977,25.943c1.994,3.991,0,5.986-2,7.982Z" transform="translate(-686.343 -386.443)" fill="#3d4655"/>
          </g>
          <g id="Group_507" data-name="Group 507" transform="translate(422.059 358.9)">
            <path id="Path_251" data-name="Path 251" d="M724.116,438.379a38.506,38.506,0,0,1-19.957-5.986c-13.969-9.978-15.965-29.934-3.991-43.9,1.994-2,5.986-3.991,7.983,0a6.073,6.073,0,0,1,0,7.982,19.805,19.805,0,1,0,29.934,25.942c2-2,5.986-3.991,7.983,0a6.07,6.07,0,0,1,0,7.982C742.074,434.388,734.093,438.379,724.116,438.379Z" transform="translate(-692.306 -386.185)" fill="#3d4655"/>
          </g>
          <g id="Group_508" data-name="Group 508" transform="translate(497.771 211.543)">
            <path id="Path_252" data-name="Path 252" d="M751.977,422.7h0q-5.986,0-5.986-5.987c0-9.978-3.992-21.951-13.969-25.942s-21.952,2-23.948,11.974c-2,3.991-3.992,3.991-7.983,3.991-3.992-2-3.992-3.991-3.992-7.982a31,31,0,0,1,39.912-17.961c15.965,5.987,21.951,23.948,21.951,37.917C757.964,418.7,755.968,422.7,751.977,422.7Z" transform="translate(-696.1 -378.8)" fill="#3d4655"/>
          </g>
          <g id="Group_509" data-name="Group 509" transform="translate(45.891 246.682)">
            <path id="Path_253" data-name="Path 253" d="M698.277,443.2h0c-17.961-3.992-27.94-21.952-23.948-37.916s19.955-27.938,37.917-23.948c3.991,0,5.986,3.991,3.991,7.982,0,3.991-3.991,5.986-7.983,3.991-9.977-2-19.955,3.991-23.947,13.969-1.994,9.978,3.992,19.956,13.97,23.947,3.991,0,5.986,3.991,3.991,7.982C702.268,443.2,700.271,443.2,698.277,443.2Z" transform="translate(-673.456 -380.561)" fill="#3d4655"/>
          </g>
          <g id="Group_510" data-name="Group 510" transform="translate(213.647 286.104)">
            <path id="Path_254" data-name="Path 254" d="M718.532,471.606h0A40.973,40.973,0,0,1,688.6,451.65a49.725,49.725,0,0,1-5.986-33.925c5.986-23.948,29.934-39.913,53.881-33.926,3.991,0,5.986,3.992,3.991,7.982,0,3.991-3.991,5.987-7.983,3.991-17.96-3.991-35.92,5.987-39.912,23.947-1.994,7.982,0,17.961,3.992,25.943s11.972,11.974,19.955,13.969c3.992,0,5.987,3.991,3.992,7.982C722.524,469.611,720.527,471.606,718.532,471.606Z" transform="translate(-681.863 -382.537)" fill="#3d4655"/>
          </g>
          <g id="Group_513" data-name="Group 513" transform="translate(119.775 36.818)">
            <g id="Group_511" data-name="Group 511" transform="translate(28.658 36.511)">
              <path id="Path_255" data-name="Path 255" d="M684.69,428.259q-5.986,0-5.986-5.986c-2-23.947,23.947-45.9,55.877-49.89a60.143,60.143,0,0,1,41.908,9.978c11.973,7.982,19.955,17.96,19.955,29.934q0,5.987-5.986,5.987t-5.986-5.987c0-7.982-5.988-15.965-15.965-21.951s-21.952-7.982-35.921-7.982c-25.943,2-45.9,17.96-45.9,35.921,3.99,5.986,1.994,9.978-2,9.978Z" transform="translate(-678.595 -371.874)" fill="#3d4655"/>
            </g>
            <g id="Group_512" data-name="Group 512">
              <path id="Path_256" data-name="Path 256" d="M727.876,431.012c-2,0-2,0-3.991-2a6.07,6.07,0,0,1,0-7.982c7.983-9.978,5.986-27.938-3.992-35.921s-21.951-2-33.926,3.992c-1.994,2-5.986,0-7.983-2s0-5.986,2-7.982c9.978-5.986,31.929-15.965,47.9-2,7.983,5.986,11.974,15.965,13.969,25.942s-1.994,19.956-7.983,27.938Z" transform="translate(-677.158 -370.045)" fill="#3d4655"/>
            </g>
          </g>
          <g id="Group_514" data-name="Group 514" transform="translate(417.948 251.447)">
            <path id="Path_257" data-name="Path 257" d="M777.91,478.584q-5.986,0-5.986-5.987s0-23.947-3.991-33.926-19.957-45.9-69.847-45.9q-5.986,0-5.986-5.987t5.986-5.986h0c57.873,0,77.83,41.907,81.82,53.881S783.9,470.6,783.9,472.6s-3.992,5.986-5.987,5.986Z" transform="translate(-692.1 -380.8)" fill="#3d4655"/>
          </g>
          <g id="Group_515" data-name="Group 515" transform="translate(327.319 270.576)">
            <path id="Path_258" data-name="Path 258" d="M772.2,440.458c-59.869,0-83.816-49.89-83.816-49.89-1.994-2,0-5.987,2-7.982s5.986,0,7.983,2,27.94,55.877,95.789,41.908c3.992,0,5.986,2,7.983,3.991,0,3.991-2,5.986-3.991,7.982A143.177,143.177,0,0,1,772.2,440.458Z" transform="translate(-687.558 -381.758)" fill="#3d4655"/>
          </g>
          <g id="Group_516" data-name="Group 516" transform="translate(302.7 22.949)">
            <path id="Path_259" data-name="Path 259" d="M691.813,414.251c-2,0-2,0-3.992-2a6.073,6.073,0,0,1,0-7.982c53.883-55.877,111.753-27.938,113.75-27.938,2,2,3.992,5.987,2,7.982s-5.986,3.991-7.983,2S743.7,362.366,695.8,412.255C695.8,414.251,693.81,414.251,691.813,414.251Z" transform="translate(-686.325 -369.35)" fill="#3d4655"/>
          </g>
          <g id="Group_517" data-name="Group 517" transform="translate(417.64 87.498)">
            <path id="Path_260" data-name="Path 260" d="M728.313,490.633h-2c-3.992-2-3.992-3.991-2-7.982,2-2,23.947-55.877-29.934-99.78-2-2-3.992-5.986,0-7.982,2-2,5.986-3.991,7.983,0,61.863,47.894,31.929,113.75,31.929,113.75C732.3,490.633,730.307,490.633,728.313,490.633Z" transform="translate(-692.084 -372.584)" fill="#3d4655"/>
          </g>
          <g id="Group_518" data-name="Group 518" transform="translate(262.29 141.688)">
            <path id="Path_261" data-name="Path 261" d="M754.146,451.133c-37.917,0-69.846-29.934-69.846-69.846q0-5.987,5.986-5.987t5.986,5.987a57.873,57.873,0,0,0,115.747,0q0-5.987,5.986-5.987t5.986,5.987C823.992,419.2,792.062,451.133,754.146,451.133Z" transform="translate(-684.3 -375.3)" fill="#3d4655"/>
          </g>
          <g id="Group_521" data-name="Group 521">
            <g id="Group_519" data-name="Group 519">
              <path id="Path_262" data-name="Path 262" d="M1069.148,861.114h-49.891q-5.988,0-5.986-5.987c-7.983-63.859-49.89-93.793-83.816-109.758-3.991-2-3.991-3.991-3.991-7.982,1.994-3.991,3.991-3.991,7.983-3.991,29.934,11.974,79.824,43.9,89.8,113.749h37.918l-7.983-63.859v-2c0-3.992,3.991-3.992,5.986-3.992,5.986,2,13.969,2,19.955,2,47.9,0,87.807-33.925,87.807-75.833,0-5.986,0-11.974-1.994-17.961V681.51c0-2,1.994-2,3.991-2,27.94-3.991,47.9-27.938,47.9-57.873a56.31,56.31,0,0,0-7.983-29.934q-2.993-2.994,0-5.987c5.986-7.982,7.983-17.96,7.983-29.934,0-23.948-13.969-45.9-35.92-53.882a4.293,4.293,0,0,1-3.992-3.991A93.069,93.069,0,0,0,1152.964,458c-13.969-13.969-29.934-23.948-47.9-25.942a4.292,4.292,0,0,1-3.991-3.991,57.529,57.529,0,0,0-51.886-31.93c-7.983,0-13.969,2-21.951,3.991-2,2-5.986,0-7.983-2-7.983-9.978-19.957-17.96-33.926-17.96-9.978,0-19.955,3.991-25.943,9.978q-2.991,2.994-5.986,0c-13.969-5.986-31.929-9.978-49.89-7.982-23.947,2-45.9,13.97-59.867,29.934-2,2-3.992,2-5.986,2-5.988-2-9.978-3.991-15.965-3.991-17.961,0-33.926,11.974-39.912,27.938,0,2-3.992,3.991-5.987,3.991h-3.99a57.915,57.915,0,0,0-57.873,57.873v2c0,2,0,3.992-2,3.992-17.961,15.965-27.938,47.894-23.948,79.824,2,21.952,11.974,43.9,23.948,57.873s27.94,19.956,41.908,19.956c5.986,0,11.972-2,15.965-5.987q2.993-2.993,5.986,0c11.974,7.982,27.94,9.978,39.912,3.991h5.987c1.994,0,1.994,2,3.991,3.992a115.337,115.337,0,0,0,9.978,27.938,76.119,76.119,0,0,0,31.929,29.934,35.66,35.66,0,0,0,31.929,0c2-2,5.986-2,7.983,2,2,2,2,5.986-2,7.982-11.973,7.982-27.938,7.982-41.908,2s-27.938-17.961-37.917-33.926c-5.986-7.982-7.983-15.965-11.973-25.942-13.97,3.991-29.935,2-41.907-5.987l-17.961,5.987c-17.961,2-37.917-5.987-53.881-21.952-13.97-15.964-23.947-39.912-27.94-63.859-3.991-35.921,5.986-69.846,25.943-89.8,0-37.917,31.929-67.85,67.85-67.85,7.983-17.961,27.94-31.93,47.9-31.93,5.986,0,9.977,0,15.965,2,15.965-15.965,37.917-27.938,63.86-29.934,17.96-2,35.92,0,51.885,5.986,9.978-5.986,19.957-9.978,31.929-9.978,15.965,0,29.934,5.986,39.912,17.96,7.983-2,13.969-3.991,21.951-3.991a69.6,69.6,0,0,1,59.869,33.926,93.788,93.788,0,0,1,49.891,29.934c11.973,11.974,21.951,25.943,25.942,41.908,25.943,11.974,41.907,35.921,41.907,63.86,0,11.974-2,21.951-7.983,31.93,5.986,9.978,7.983,19.956,7.983,31.93,0,31.93-21.951,59.868-51.885,67.85,1.994,5.986,1.994,9.978,1.994,15.965,0,47.894-43.9,87.806-99.78,87.806h-13.969l7.983,63.86c0,2,0,3.992-2,3.992C1073.139,861.114,1071.143,861.114,1069.148,861.114Z" transform="translate(-671.156 -368.2)" fill="#3d4655"/>
            </g>
            <g id="Group_520" data-name="Group 520" transform="translate(228.364 356.431)">
              <path id="Path_263" data-name="Path 263" d="M716.525,408.795h0l-29.935-9.978c-1.994,0-3.991-3.991-3.991-7.982s3.991-5.987,5.986-3.992c0,0,11.974,2,29.934,9.978,2,2,3.992,3.991,3.992,7.982C720.516,406.8,718.521,408.795,716.525,408.795Z" transform="translate(-682.6 -386.061)" fill="#3d4655"/>
            </g>
          </g>
        </g>
      </g>
    </g>
  </g>
</svg>
