<svg id="gayka" xmlns="http://www.w3.org/2000/svg" width="275.222" height="293.986" viewBox="0 0 275.222 293.986">
  <g id="Group_676" data-name="Group 676" transform="translate(0 17.592)" opacity="0.1">
    <path id="Path_614" data-name="Path 614" d="M514.409,349.9a98.723,98.723,0,0,0,3.909-17.983l38.7-3.128L540.6,254.124l-36.748,13.292a98.244,98.244,0,0,0-25.02-27.366l16.42-35.184L422.538,181.8l-6.646,38.312a94.742,94.742,0,0,0-35.967,8.21l-22.283-32.057-56.3,51.6,30.1,25.02c-2.737,5.473-5.473,10.946-7.037,17.2a98.713,98.713,0,0,0-3.909,17.983L281.8,311.2l16.42,74.669,36.748-13.292a98.248,98.248,0,0,0,25.02,27.366l-16.419,35.185,72.715,23.065,6.646-38.312a94.746,94.746,0,0,0,35.967-8.21l22.284,32.057,56.3-51.6-30.1-25.02A132.225,132.225,0,0,0,514.409,349.9Zm-112.59,25.411a58.234,58.234,0,1,1,73.106-37.921C465.542,367.887,432.7,385.088,401.819,375.315Z" transform="translate(-281.8 -181.8)"/>
  </g>
  <g id="Group_677" data-name="Group 677" transform="translate(0 0)">
    <path id="Path_615" data-name="Path 615" d="M514.409,345.4a98.721,98.721,0,0,0,3.909-17.983l38.7-3.128L540.6,249.624l-36.748,13.292a98.244,98.244,0,0,0-25.02-27.366l16.42-35.185L422.538,177.3l-6.646,38.312a94.745,94.745,0,0,0-35.967,8.21l-22.283-32.057-56.3,51.6,30.1,25.02c-2.737,5.473-5.473,10.946-7.037,17.2a98.712,98.712,0,0,0-3.909,17.983L281.8,306.7l16.42,74.669,36.748-13.292a98.246,98.246,0,0,0,25.02,27.366l-16.419,35.185,72.715,23.065,6.646-38.312a94.743,94.743,0,0,0,35.967-8.21l22.284,32.057,56.3-51.6-30.1-25.02A113.052,113.052,0,0,0,514.409,345.4Zm-112.59,25.8a58.234,58.234,0,1,1,73.106-37.921C465.542,363.778,432.7,380.588,401.819,371.206Z" transform="translate(-281.8 -177.3)" fill="#9592ad"/>
  </g>
</svg>
