<svg xmlns="http://www.w3.org/2000/svg" width="158.293" height="165.512" viewBox="0 0 158.293 165.512">
  <g id="gift" transform="translate(-11.165)">
    <path id="Path_1472" data-name="Path 1472" d="M22.47,148.143,90.152,109.12l67.682,39.023.047-.027v52.138l-67.729,39.1-67.729-39.1V148.115Z" transform="translate(-7.619 -73.845)" fill="#ed7064"/>
    <path id="Path_1473" data-name="Path 1473" d="M22.423,281.888l67.729,39.1V268.854l-67.729-39.1Z" transform="translate(-7.619 -155.48)" fill="#c40041"/>
    <path id="Path_1474" data-name="Path 1474" d="M231.939,268.854l67.729-39.1v52.138l-67.729,39.1Z" transform="translate(-149.406 -155.48)" fill="#f43834"/>
    <path id="Path_1475" data-name="Path 1475" d="M11.214,81.648l71.319-41.12,71.319,41.12.049-.028V99.658l-71.368,41.2-71.368-41.2V81.619Z" transform="translate(0 -27.427)" fill="#ff8a5c"/>
    <path id="Path_1476" data-name="Path 1476" d="M11.165,185.68l71.368,41.2V208.846l-71.368-41.2Z" transform="translate(0 -113.448)" fill="#f43834"/>
    <path id="Path_1477" data-name="Path 1477" d="M231.939,208.846l71.368-41.2V185.68l-71.368,41.2Z" transform="translate(-149.406 -113.448)" fill="#ff5331"/>
    <path id="Path_1478" data-name="Path 1478" d="M106,206.283l-17.73-10.237V125.873L159.5,84.745l17.722,10.218L106,136.086Z" transform="translate(-52.177 -57.35)" fill="#ff812c"/>
    <path id="Path_1479" data-name="Path 1479" d="M172.754,205.636l17.73-10.237V125.226L119.248,84.1,101.526,94.316l71.228,41.123Z" transform="translate(-61.15 -56.912)" fill="#ff9f2c"/>
    <g id="Group_2025" data-name="Group 2025" transform="translate(36.089 27.186)">
      <path id="Path_1480" data-name="Path 1480" d="M172.754,135.439l17.73-10.213L119.248,84.1,101.526,94.316Z" transform="translate(-97.24 -84.098)" fill="#ffd800"/>
      <path id="Path_1481" data-name="Path 1481" d="M106,136.086l-17.73-10.213L159.5,84.745l17.722,10.218Z" transform="translate(-88.266 -84.536)" fill="#ffd800"/>
    </g>
    <g id="Group_2026" data-name="Group 2026" transform="translate(63.005 36.048)">
      <path id="Path_1482" data-name="Path 1482" d="M290.468,141.721l-4.113-10.1,17.342-5.513-80.95-14.6-13.219,15.611Z" transform="translate(-197.244 -111.512)" fill="#f0c419"/>
      <path id="Path_1483" data-name="Path 1483" d="M190.375,195.823l-8.408-6.939-10.438,14.907,10.225-81.619,18.845-7.958Z" transform="translate(-171.529 -113.341)" fill="#f0c419"/>
    </g>
    <path id="Path_1484" data-name="Path 1484" d="M248.166,43.517a5.744,5.744,0,0,1-.983-5.425c3.08-9.291,11.806-33.08,26.345-37.487,13.585-4.118,30.685,13.529,19.85,30.284-8.627,13.342-29.083,17.275-37.061,18.324a5.751,5.751,0,0,1-5.229-2.082Z" transform="translate(-159.523 0)" fill="#ffd800"/>
    <path id="Path_1485" data-name="Path 1485" d="M301.867,58.345c6.4-3.5,9.776.491,7.59,6.952s-13.374,12.622-20.018,15.872-15.767,4.424-15.767,4.424S295.465,61.848,301.867,58.345Z" transform="translate(-177.648 -38.603)" fill="#dca700"/>
    <path id="Path_1486" data-name="Path 1486" d="M173.052,103.649a13.379,13.379,0,0,1,7.274-2.878,11.024,11.024,0,0,0,8.286-4.783,13.377,13.377,0,1,1,11.853,20.949,10.169,10.169,0,0,0-7.922,4.574,13.376,13.376,0,0,1-23.433-2.135A13.41,13.41,0,0,1,173.052,103.649Z" transform="translate(-106.156 -61.045)" fill="#ffe252"/>
    <path id="Path_1487" data-name="Path 1487" d="M91.133,150.558a5.745,5.745,0,0,0-4.81-2.694c-9.788-.11-35.121.4-44.019,12.715C33.991,172.085,45.113,194,64.483,189.2c15.423-3.817,25.8-21.881,29.384-29.083A5.751,5.751,0,0,0,93.6,154.5Z" transform="translate(-19.186 -100.057)" fill="#ffd800"/>
    <path id="Path_1488" data-name="Path 1488" d="M87.823,199.1c-5.4,4.914-2.717,9.4,4.1,9.439s16.286-8.54,21.522-13.765,9.313-13.469,9.313-13.469S93.219,194.189,87.823,199.1Z" transform="translate(-49.933 -122.697)" fill="#dca700"/>
  </g>
</svg>
