<svg xmlns="http://www.w3.org/2000/svg" width="44.865" height="44.931" viewBox="0 0 44.865 44.931">
  <g id="head_phone" transform="translate(-0.344)">
    <g id="Group_640" data-name="Group 640" transform="translate(0.344 0)">
      <path id="Path_365" data-name="Path 365" d="M35.821,52.64a4.419,4.419,0,0,0-3.205-1.47,4.57,4.57,0,0,0-3.243,1.46l-3,2.987c-.247-.133-.493-.256-.73-.379-.341-.171-.664-.332-.939-.5a32.569,32.569,0,0,1-7.8-7.112,19.214,19.214,0,0,1-2.56-4.04c.778-.711,1.5-1.451,2.2-2.162.266-.266.531-.541.8-.806a4.351,4.351,0,0,0,0-6.562L14.75,31.465c-.294-.294-.6-.6-.882-.9-.569-.588-1.166-1.195-1.783-1.764a4.489,4.489,0,0,0-3.177-1.394A4.645,4.645,0,0,0,5.684,28.8l-.019.019L2.441,32.072a6.938,6.938,0,0,0-2.058,4.41A16.624,16.624,0,0,0,1.6,43.518a40.831,40.831,0,0,0,7.254,12.1,44.626,44.626,0,0,0,14.86,11.636,23.152,23.152,0,0,0,8.345,2.466c.2.009.408.019.6.019a7.146,7.146,0,0,0,5.472-2.352c.009-.019.028-.028.038-.047a21.559,21.559,0,0,1,1.66-1.716c.408-.389.825-.8,1.233-1.223a4.731,4.731,0,0,0,1.432-3.281,4.557,4.557,0,0,0-1.46-3.253Zm3.395,9.986c-.009,0-.009.009,0,0-.37.4-.749.759-1.157,1.157a24.934,24.934,0,0,0-1.83,1.9,4.572,4.572,0,0,1-3.566,1.508c-.142,0-.294,0-.436-.009a20.568,20.568,0,0,1-7.4-2.219A42.124,42.124,0,0,1,10.834,54a38.5,38.5,0,0,1-6.828-11.37A13.54,13.54,0,0,1,2.944,36.69a4.353,4.353,0,0,1,1.309-2.816L7.486,30.64a2.156,2.156,0,0,1,1.441-.673,2.028,2.028,0,0,1,1.385.664l.028.028c.578.541,1.128,1.1,1.707,1.7.294.3.6.607.9.92l2.589,2.589a1.81,1.81,0,0,1,0,2.94c-.275.275-.541.55-.816.816-.8.816-1.555,1.574-2.38,2.314-.019.019-.038.028-.047.047a1.934,1.934,0,0,0-.493,2.153l.028.085a20.784,20.784,0,0,0,3.063,5l.009.009a34.806,34.806,0,0,0,8.421,7.662,12.948,12.948,0,0,0,1.166.635c.341.171.664.332.939.5.038.019.076.047.114.066a2.056,2.056,0,0,0,.939.237,2.028,2.028,0,0,0,1.441-.654l3.243-3.243a2.145,2.145,0,0,1,1.432-.711,1.931,1.931,0,0,1,1.366.692l.019.019,5.225,5.225A1.875,1.875,0,0,1,39.216,62.626Z" transform="translate(-0.344 -24.807)" fill="#57b846"/>
      <path id="Path_366" data-name="Path 366" d="M246,88.465a12.2,12.2,0,0,1,9.938,9.938,1.272,1.272,0,0,0,1.261,1.062,1.692,1.692,0,0,0,.218-.019,1.281,1.281,0,0,0,1.053-1.479,14.757,14.757,0,0,0-12.024-12.024,1.287,1.287,0,0,0-1.479,1.043A1.266,1.266,0,0,0,246,88.465Z" transform="translate(-221.749 -77.777)" fill="#57b846"/>
      <path id="Path_367" data-name="Path 367" d="M270.063,19.82a24.3,24.3,0,0,0-19.8-19.8,1.278,1.278,0,1,0-.417,2.522,21.7,21.7,0,0,1,17.7,17.7A1.272,1.272,0,0,0,268.8,21.3a1.693,1.693,0,0,0,.218-.019A1.256,1.256,0,0,0,270.063,19.82Z" transform="translate(-225.217 0)" fill="#57b846"/>
    </g>
  </g>
</svg>
