<svg xmlns="http://www.w3.org/2000/svg" width="45.737" height="45.737" viewBox="0 0 45.737 45.737">
  <path id="head_user" d="M45.737,22.869A22.869,22.869,0,1,0,7.423,39.715l-.022.019.742.625c.048.041.1.074.149.114.394.327.8.637,1.218.937.135.1.269.195.407.289q.666.459,1.365.872c.1.06.2.118.306.176.51.29,1.03.564,1.563.815l.118.053a22.663,22.663,0,0,0,5.531,1.75l.153.027c.6.1,1.211.187,1.827.243l.225.017c.614.051,1.234.083,1.863.083s1.237-.032,1.848-.081l.232-.017q.917-.084,1.811-.239l.156-.028a22.661,22.661,0,0,0,5.453-1.709c.063-.029.127-.057.19-.086q.77-.362,1.506-.778.183-.1.365-.21c.447-.264.887-.539,1.315-.832.154-.1.3-.215.457-.325.365-.263.723-.534,1.072-.817.077-.062.16-.116.236-.18l.761-.635-.022-.019A22.809,22.809,0,0,0,45.737,22.869Zm-44.074,0A21.205,21.205,0,1,1,36.932,38.721a6.232,6.232,0,0,0-.743-.447l-7.041-3.52A1.843,1.843,0,0,1,28.123,33.1V30.638c.163-.2.335-.429.513-.679a16.946,16.946,0,0,0,2.175-4.26,3.018,3.018,0,0,0,1.734-2.735V20.015a3.026,3.026,0,0,0-.738-1.97V14.164a6.707,6.707,0,0,0-1.566-4.876c-1.533-1.75-4.013-2.635-7.374-2.635s-5.841.886-7.374,2.634a6.708,6.708,0,0,0-1.566,4.876v3.881a3.03,3.03,0,0,0-.738,1.97v2.948a3.025,3.025,0,0,0,1.114,2.346,15.626,15.626,0,0,0,2.572,5.313v2.407a1.855,1.855,0,0,1-.966,1.628L9.336,38.243a6.01,6.01,0,0,0-.625.4A21.155,21.155,0,0,1,1.663,22.869Z" fill="#57b846"/>
</svg>
