<svg id="ico-c-top1" xmlns="http://www.w3.org/2000/svg" width="29.679" height="29.932" viewBox="0 0 29.679 29.932">
  <path id="Path_184" data-name="Path 184" d="M26.227,19.024a5.418,5.418,0,0,0-4.26,2.09L12.7,16.377a5.419,5.419,0,0,0,.208-1.411,5.374,5.374,0,0,0-.248-1.53L21.887,8.72a5.43,5.43,0,1,0-1.11-3.268,5.4,5.4,0,0,0,.21,1.415L11.725,11.6a5.449,5.449,0,1,0,.08,6.625l9.218,4.715a5.387,5.387,0,0,0-.249,1.534,5.454,5.454,0,1,0,5.453-5.455Z" transform="translate(-2.006)" fill="#fff"/>
</svg>
