<svg id="ico-c-top3" xmlns="http://www.w3.org/2000/svg" width="34.709" height="26.363" viewBox="0 0 34.709 26.363">
  <g id="Group_484" data-name="Group 484" transform="translate(0 0)">
    <path id="Path_175" data-name="Path 175" d="M0,63.346v17.57a4.4,4.4,0,0,0,4.4,4.4H18.6a4.4,4.4,0,0,0,4.4-4.4V78.071a.871.871,0,1,0-1.741,0v2.846a2.668,2.668,0,0,1-2.662,2.662H4.4a2.668,2.668,0,0,1-2.662-2.662V63.346A2.668,2.668,0,0,1,4.4,60.684H18.6a2.668,2.668,0,0,1,2.662,2.662v2.846a.871.871,0,1,0,1.741,0V63.346a4.4,4.4,0,0,0-4.4-4.4H4.4A4.4,4.4,0,0,0,0,63.346Z" transform="translate(0 -58.95)" fill="#fff"/>
    <path id="Path_176" data-name="Path 176" d="M218.979,162.308a.872.872,0,0,0,1.232,0l5.939-5.939a.863.863,0,0,0,0-1.225L220.21,149.2a.866.866,0,0,0-1.225,1.225l4.46,4.46H207.171a.871.871,0,0,0,0,1.741h16.268l-4.46,4.46A.855.855,0,0,0,218.979,162.308Z" transform="translate(-191.696 -142.579)" fill="#fff"/>
  </g>
</svg>
