<svg id="ico-c-top2" xmlns="http://www.w3.org/2000/svg" width="33.031" height="36.126" viewBox="0 0 33.031 36.126">
  <g id="Group_485" data-name="Group 485" transform="translate(0 0)">
    <path id="Path_177" data-name="Path 177" d="M27.708,7.164A14.4,14.4,0,0,1,46.431,6.67l-4.286.162a1,1,0,0,0,.037,1.992h.037L48.8,8.58a.994.994,0,0,0,.959-1V7.466h0L49.515.96a1,1,0,0,0-1.992.074l.155,4.08a16.38,16.38,0,0,0-21.305.575A16.386,16.386,0,0,0,21.445,21.7a.992.992,0,0,0,.966.76.863.863,0,0,0,.236-.03,1,1,0,0,0,.73-1.2A14.393,14.393,0,0,1,27.708,7.164Z" transform="translate(-20.982 0)" fill="#fff"/>
    <path id="Path_178" data-name="Path 178" d="M105.71,185.974a.995.995,0,0,0-1.933.472,14.391,14.391,0,0,1-23.171,14.466l4.338-.391a1,1,0,1,0-.184-1.984l-6.558.59a1,1,0,0,0-.9,1.084l.59,6.558a.994.994,0,0,0,.989.907.359.359,0,0,0,.089-.007,1,1,0,0,0,.9-1.084l-.354-3.991a16.27,16.27,0,0,0,9.465,3.607c.28.015.561.022.834.022a16.382,16.382,0,0,0,15.9-20.25Z" transform="translate(-73.142 -171.551)" fill="#fff"/>
  </g>
</svg>
