<svg xmlns="http://www.w3.org/2000/svg" width="30.361" height="30.362" viewBox="0 0 30.361 30.362">
  <g id="ico-check" transform="translate(-0.004)">
    <path id="Path_368" data-name="Path 368" d="M15.185,0a15.181,15.181,0,1,0,15.18,15.181A15.18,15.18,0,0,0,15.185,0Zm0,27.516A12.335,12.335,0,1,1,27.519,15.181,12.334,12.334,0,0,1,15.185,27.516ZM21.151,8.723a1.322,1.322,0,0,0-1.841.512l-5.09,9.144-2.835-3.451a1.426,1.426,0,0,0-1.84-.512,1.4,1.4,0,0,0-.494,1.911L13,21.129a1.664,1.664,0,0,0,.984.678l0,.006.036,0a1.721,1.721,0,0,0,1.785-.686l5.843-10.495A1.43,1.43,0,0,0,21.151,8.723Z" fill="#57b846"/>
  </g>
</svg>
