<svg id="insta" xmlns="http://www.w3.org/2000/svg" xmlns:xlink="http://www.w3.org/1999/xlink" width="49.992" height="49.992" viewBox="0 0 49.992 49.992">
  <defs>
    <linearGradient id="linear-gradient" x1="0.5" y1="0.008" x2="0.5" y2="0.998" gradientUnits="objectBoundingBox">
      <stop offset="0" stop-color="#e09b3d"/>
      <stop offset="0.3" stop-color="#c74c4d"/>
      <stop offset="0.6" stop-color="#c21975"/>
      <stop offset="1" stop-color="#7024c4"/>
    </linearGradient>
    <linearGradient id="linear-gradient-2" y1="-0.451" y2="1.462" xlink:href="#linear-gradient"/>
    <linearGradient id="linear-gradient-3" y1="-1.396" y2="6.586" xlink:href="#linear-gradient"/>
  </defs>
  <path id="Path_606" data-name="Path 606" d="M35.1,0H14.893A14.91,14.91,0,0,0,0,14.893V35.1A14.91,14.91,0,0,0,14.893,49.992H35.1A14.91,14.91,0,0,0,49.992,35.1V14.893A14.91,14.91,0,0,0,35.1,0Zm9.864,35.1A9.864,9.864,0,0,1,35.1,44.963H14.893A9.864,9.864,0,0,1,5.029,35.1V14.893a9.864,9.864,0,0,1,9.864-9.864H35.1a9.864,9.864,0,0,1,9.864,9.864V35.1Z" fill="url(#linear-gradient)"/>
  <path id="Path_607" data-name="Path 607" d="M145.93,133a12.93,12.93,0,1,0,12.93,12.93A12.944,12.944,0,0,0,145.93,133Zm0,20.83a7.9,7.9,0,1,1,7.9-7.9A7.9,7.9,0,0,1,145.93,153.83Z" transform="translate(-120.934 -120.934)" fill="url(#linear-gradient-2)"/>
  <circle id="Ellipse_29" data-name="Ellipse 29" cx="3.098" cy="3.098" r="3.098" transform="translate(34.853 9.065)" fill="url(#linear-gradient-3)"/>
</svg>
