<svg xmlns="http://www.w3.org/2000/svg" width="589.599" height="678.858" viewBox="0 0 589.599 678.858">
  <g id="know-img" transform="translate(-57.211 -80.58)">
    <g id="Group_678" data-name="Group 678" transform="translate(420.55 237.053)">
      <g id="Group_676" data-name="Group 676" transform="translate(0 7.28)" opacity="0.1">
        <path id="Path_614" data-name="Path 614" d="M378.059,251.365a40.856,40.856,0,0,0,1.618-7.442l16.016-1.294-6.795-30.9-15.207,5.5a40.656,40.656,0,0,0-10.354-11.325l6.795-14.56L340.041,181.8l-2.75,15.854a39.206,39.206,0,0,0-14.884,3.4l-9.221-13.266-23.3,21.355,12.457,10.354a34.588,34.588,0,0,0-2.912,7.118,40.85,40.85,0,0,0-1.618,7.442L281.8,235.349l6.795,30.9,15.207-5.5a40.658,40.658,0,0,0,10.354,11.325l-6.795,14.56,30.091,9.545,2.75-15.854a39.208,39.208,0,0,0,14.884-3.4l9.221,13.266,23.3-21.355-12.457-10.354A54.718,54.718,0,0,0,378.059,251.365Zm-46.592,10.516a24.1,24.1,0,1,1,30.253-15.693A24.106,24.106,0,0,1,331.466,261.881Z" transform="translate(-281.8 -181.8)"/>
      </g>
      <g id="Group_677" data-name="Group 677" transform="translate(0 0)">
        <path id="Path_615" data-name="Path 615" d="M378.059,246.865a40.855,40.855,0,0,0,1.618-7.442l16.016-1.294-6.795-30.9-15.207,5.5a40.656,40.656,0,0,0-10.354-11.325l6.795-14.56L340.041,177.3l-2.75,15.854a39.207,39.207,0,0,0-14.884,3.4l-9.221-13.266-23.3,21.355,12.457,10.354a34.588,34.588,0,0,0-2.912,7.118,40.85,40.85,0,0,0-1.618,7.442L281.8,230.849l6.795,30.9,15.207-5.5a40.657,40.657,0,0,0,10.354,11.324l-6.795,14.56,30.091,9.545,2.75-15.854a39.207,39.207,0,0,0,14.884-3.4l9.221,13.266,23.3-21.355-12.457-10.354A46.784,46.784,0,0,0,378.059,246.865Zm-46.592,10.677a24.1,24.1,0,1,1,30.253-15.693C357.836,254.469,344.247,261.425,331.466,257.543Z" transform="translate(-281.8 -177.3)" fill="#9592ad"/>
      </g>
    </g>
    <g id="Group_681" data-name="Group 681" transform="translate(162.026 237.053)">
      <g id="Group_679" data-name="Group 679" transform="translate(0 7.28)" opacity="0.1">
        <path id="Path_616" data-name="Path 616" d="M142.87,258.322l-12.457,10.354,23.3,21.355,9.221-13.266a42.5,42.5,0,0,0,14.884,3.4l2.75,15.854,30.091-9.545-6.795-14.56a40.657,40.657,0,0,0,10.354-11.325l15.207,5.5,6.795-30.9L220.2,233.893a40.854,40.854,0,0,0-1.618-7.442,54.722,54.722,0,0,0-2.912-7.118l12.457-10.354-23.62-21.193-9.221,13.266a42.5,42.5,0,0,0-14.884-3.4l-2.75-15.854-30.091,9.545,6.795,14.56A40.656,40.656,0,0,0,144,217.23l-15.207-5.5L122,242.629l16.016,1.294a40.848,40.848,0,0,0,1.618,7.442A45.721,45.721,0,0,0,142.87,258.322Zm13.266-12.133a24.1,24.1,0,1,1,30.253,15.693A24.174,24.174,0,0,1,156.135,246.188Z" transform="translate(-122 -181.8)"/>
      </g>
      <g id="Group_680" data-name="Group 680" transform="translate(0 0)">
        <path id="Path_617" data-name="Path 617" d="M142.87,253.983l-12.457,10.354,23.3,21.355,9.221-13.266a42.5,42.5,0,0,0,14.884,3.4l2.75,15.854,30.091-9.545-6.795-14.56a40.656,40.656,0,0,0,10.354-11.324l15.207,5.5,6.795-30.9L220.2,229.555a40.854,40.854,0,0,0-1.618-7.442,54.724,54.724,0,0,0-2.912-7.118l12.457-10.354-23.62-21.355-9.221,13.266a42.5,42.5,0,0,0-14.884-3.4l-2.75-15.854-30.091,9.545,6.795,14.56A40.656,40.656,0,0,0,144,212.73l-15.207-5.5L122,238.129l16.016,1.294a40.847,40.847,0,0,0,1.618,7.442A47.639,47.639,0,0,0,142.87,253.983Zm13.266-12.3a24.1,24.1,0,1,1,30.253,15.693A24.174,24.174,0,0,1,156.135,241.688Z" transform="translate(-122 -177.3)" fill="#9592ad"/>
      </g>
    </g>
    <g id="Group_685" data-name="Group 685" transform="translate(455.576 127.438)">
      <g id="Group_682" data-name="Group 682" transform="translate(7.5 16.742)" opacity="0.1">
        <circle id="Ellipse_30" data-name="Ellipse 30" cx="38.018" cy="38.018" r="38.018" transform="matrix(0.245, -0.97, 0.97, 0.245, 0, 73.725)"/>
        <path id="Path_618" data-name="Path 618" d="M369.021,151.489h0V151a12.843,12.843,0,0,0-12.781-12.942,13.033,13.033,0,0,0-10.678,5.5h0a13.079,13.079,0,0,0-10.516-5.662,12.843,12.843,0,0,0-12.942,12.781v.485h0c-.647,16.34,22,27.988,23.134,28.635h0C345.725,179.477,369.183,167.991,369.021,151.489Z" transform="translate(-299.434 -108.769)"/>
      </g>
      <g id="Group_684" data-name="Group 684" transform="translate(0 0)">
        <g id="Group_683" data-name="Group 683" transform="translate(0)">
          <circle id="Ellipse_31" data-name="Ellipse 31" cx="38.018" cy="38.018" r="38.018" transform="translate(0 57.521) rotate(-49.161)" fill="#f03265"/>
          <path id="Path_619" data-name="Path 619" d="M369.021,145.689h0V145.2a12.843,12.843,0,0,0-12.781-12.942,13.033,13.033,0,0,0-10.678,5.5h0a13.079,13.079,0,0,0-10.516-5.662,12.843,12.843,0,0,0-12.942,12.781v.485h0c-.647,16.34,22,27.988,23.134,28.635h0C345.725,173.677,369.183,162.353,369.021,145.689Z" transform="translate(-291.934 -95.61)" fill="#fff"/>
        </g>
      </g>
    </g>
    <g id="Group_689" data-name="Group 689" transform="translate(145.029 127.339)">
      <g id="Group_686" data-name="Group 686" transform="translate(0.022 9.374)" opacity="0.1">
        <circle id="Ellipse_32" data-name="Ellipse 32" cx="38.018" cy="38.018" r="38.018" transform="translate(0 53.765) rotate(-45)"/>
        <text id="_" data-name="$" transform="translate(36.904 69.097)" font-size="53" font-family="OpenSans-ExtraBold, Open Sans" font-weight="800"><tspan x="0" y="0">$</tspan></text>
      </g>
      <g id="Group_688" data-name="Group 688" transform="translate(0 0)">
        <g id="Group_687" data-name="Group 687" transform="translate(0)">
          <circle id="Ellipse_33" data-name="Ellipse 33" cx="38.018" cy="38.018" r="38.018" transform="translate(0 53.765) rotate(-45)" fill="#f03265"/>
          <text id="_2" data-name="$" transform="translate(36.926 69.119)" fill="#fff" font-size="53" font-family="OpenSans-ExtraBold, Open Sans" font-weight="800"><tspan x="0" y="0">$</tspan></text>
        </g>
      </g>
    </g>
    <g id="Group_693" data-name="Group 693" transform="translate(539.257 298.958)">
      <g id="Group_690" data-name="Group 690" transform="translate(0.022 9.374)" opacity="0.1">
        <circle id="Ellipse_34" data-name="Ellipse 34" cx="38.018" cy="38.018" r="38.018" transform="translate(0 53.765) rotate(-45)"/>
        <text id="_3" data-name="?" transform="translate(39.616 68.926)" font-size="52" font-family="OpenSans-ExtraBold, Open Sans" font-weight="800"><tspan x="0" y="0">?</tspan></text>
      </g>
      <g id="Group_692" data-name="Group 692" transform="translate(0 0)">
        <g id="Group_691" data-name="Group 691">
          <circle id="Ellipse_35" data-name="Ellipse 35" cx="38.018" cy="38.018" r="38.018" transform="translate(0 53.765) rotate(-45)" fill="#f03265"/>
          <text id="_4" data-name="?" transform="translate(39.637 68.948)" fill="#fff" font-size="52" font-family="OpenSans-ExtraBold, Open Sans" font-weight="800"><tspan x="0" y="0">?</tspan></text>
        </g>
      </g>
    </g>
    <g id="Group_697" data-name="Group 697" transform="translate(57.211 298.835)">
      <g id="Group_694" data-name="Group 694" transform="translate(0.03 9.352)" opacity="0.1">
        <circle id="Ellipse_36" data-name="Ellipse 36" cx="38.018" cy="38.018" r="38.018" transform="translate(0 82.05) rotate(-76.556)"/>
        <text id="_..." data-name="..." transform="translate(20.48 57)" font-size="53" font-family="OpenSans-ExtraBold, Open Sans" font-weight="800"><tspan x="0" y="0">...</tspan></text>
      </g>
      <g id="Group_696" data-name="Group 696" transform="translate(0)">
        <g id="Group_695" data-name="Group 695">
          <circle id="Ellipse_37" data-name="Ellipse 37" cx="38.018" cy="38.018" r="38.018" transform="translate(0 82.043) rotate(-76.556)" fill="#f03265"/>
          <text id="_...-2" data-name="..." transform="translate(20.509 57)" fill="#fff" font-size="53" font-family="OpenSans-ExtraBold, Open Sans" font-weight="800"><tspan x="0" y="0">...</tspan></text>
        </g>
      </g>
    </g>
    <g id="Group_700" data-name="Group 700" transform="translate(128.861 118.437)">
      <g id="Group_698" data-name="Group 698" transform="translate(9.06)">
        <path id="Path_620" data-name="Path 620" d="M110.012,104.821a72.4,72.4,0,0,1,.971,10.192,43.54,43.54,0,0,1-.971,10.192,1.217,1.217,0,0,1-1.132.809,1.329,1.329,0,0,1-.809-.809,43.54,43.54,0,0,1-.971-10.192,43.541,43.541,0,0,1,.971-10.192,1.114,1.114,0,0,1,1.294-.809A1.075,1.075,0,0,1,110.012,104.821Z" transform="translate(-107.1 -103.98)" fill="#f03265"/>
      </g>
      <g id="Group_699" data-name="Group 699" transform="translate(0 9.091)">
        <path id="Path_621" data-name="Path 621" d="M122.693,112.512a72.41,72.41,0,0,1-10.192.971,43.541,43.541,0,0,1-10.192-.971,1.217,1.217,0,0,1-.809-1.132,1.329,1.329,0,0,1,.809-.809A43.541,43.541,0,0,1,112.5,109.6a43.541,43.541,0,0,1,10.192.971,1.114,1.114,0,0,1,.809,1.294A1.075,1.075,0,0,1,122.693,112.512Z" transform="translate(-101.5 -109.6)" fill="#f03265"/>
      </g>
    </g>
    <g id="Group_703" data-name="Group 703" transform="translate(108.477 231.844)">
      <g id="Group_701" data-name="Group 701" transform="translate(9.06 0)">
        <path id="Path_622" data-name="Path 622" d="M97.412,174.921a72.41,72.41,0,0,1,.971,10.192,43.541,43.541,0,0,1-.971,10.192,1.217,1.217,0,0,1-1.132.809,1.329,1.329,0,0,1-.809-.809,43.54,43.54,0,0,1-.971-10.192,43.54,43.54,0,0,1,.971-10.192,1.114,1.114,0,0,1,1.294-.809A1.075,1.075,0,0,1,97.412,174.921Z" transform="translate(-94.5 -174.08)" fill="#f03265"/>
      </g>
      <g id="Group_702" data-name="Group 702" transform="translate(0 9.091)">
        <path id="Path_623" data-name="Path 623" d="M110.093,182.612a72.41,72.41,0,0,1-10.192.971,43.54,43.54,0,0,1-10.192-.971,1.217,1.217,0,0,1-.809-1.132,1.329,1.329,0,0,1,.809-.809A43.54,43.54,0,0,1,99.9,179.7a43.54,43.54,0,0,1,10.192.971,1.114,1.114,0,0,1,.809,1.294A1.075,1.075,0,0,1,110.093,182.612Z" transform="translate(-88.9 -179.7)" fill="#f03265"/>
      </g>
    </g>
    <g id="Group_706" data-name="Group 706" transform="translate(193.088 385.696)">
      <g id="Group_704" data-name="Group 704" transform="translate(9.221)">
        <path id="Path_624" data-name="Path 624" d="M149.812,270.021a72.416,72.416,0,0,1,.971,10.192,43.542,43.542,0,0,1-.971,10.192,1.217,1.217,0,0,1-1.132.809,1.329,1.329,0,0,1-.809-.809,53.993,53.993,0,0,1,0-20.384,1.114,1.114,0,0,1,1.294-.809A3.528,3.528,0,0,1,149.812,270.021Z" transform="translate(-146.9 -269.18)" fill="#f03265"/>
      </g>
      <g id="Group_705" data-name="Group 705" transform="translate(0 9.091)">
        <path id="Path_625" data-name="Path 625" d="M162.393,277.712a72.41,72.41,0,0,1-10.192.971,43.54,43.54,0,0,1-10.192-.971,1.216,1.216,0,0,1-.809-1.132,1.329,1.329,0,0,1,.809-.809A43.54,43.54,0,0,1,152.2,274.8a43.54,43.54,0,0,1,10.192.971,1.114,1.114,0,0,1,.809,1.294A.74.74,0,0,1,162.393,277.712Z" transform="translate(-141.2 -274.8)" fill="#f03265"/>
      </g>
    </g>
    <g id="Group_709" data-name="Group 709" transform="translate(270.095 80.58)">
      <g id="Group_707" data-name="Group 707" transform="translate(9.06)">
        <path id="Path_626" data-name="Path 626" d="M197.312,81.421a72.408,72.408,0,0,1,.971,10.192,43.539,43.539,0,0,1-.971,10.192,1.217,1.217,0,0,1-1.132.809,1.329,1.329,0,0,1-.809-.809,43.54,43.54,0,0,1-.971-10.192,43.54,43.54,0,0,1,.971-10.192,1.114,1.114,0,0,1,1.294-.809A1.075,1.075,0,0,1,197.312,81.421Z" transform="translate(-194.4 -80.58)" fill="#f03265"/>
      </g>
      <g id="Group_708" data-name="Group 708" transform="translate(0 9.091)">
        <path id="Path_627" data-name="Path 627" d="M209.993,89.112a72.406,72.406,0,0,1-10.192.971,43.54,43.54,0,0,1-10.192-.971,1.217,1.217,0,0,1-.809-1.132,1.329,1.329,0,0,1,.809-.809,53.993,53.993,0,0,1,20.384,0,1.114,1.114,0,0,1,.809,1.294A1.075,1.075,0,0,1,209.993,89.112Z" transform="translate(-188.8 -86.2)" fill="#f03265"/>
      </g>
    </g>
    <g id="Group_712" data-name="Group 712" transform="translate(544.118 118.437)">
      <g id="Group_710" data-name="Group 710" transform="translate(9.253)">
        <path id="Path_628" data-name="Path 628" d="M366.812,104.821a72.415,72.415,0,0,1,.971,10.192,43.542,43.542,0,0,1-.971,10.192,1.217,1.217,0,0,1-1.133.809,1.329,1.329,0,0,1-.809-.809,43.537,43.537,0,0,1-.971-10.192,43.537,43.537,0,0,1,.971-10.192,1.114,1.114,0,0,1,1.294-.809A3.531,3.531,0,0,1,366.812,104.821Z" transform="translate(-363.9 -103.98)" fill="#f03265"/>
      </g>
      <g id="Group_711" data-name="Group 711" transform="translate(0 9.091)">
        <path id="Path_629" data-name="Path 629" d="M359.021,110.571a72.407,72.407,0,0,1,10.192-.971,43.54,43.54,0,0,1,10.192.971,1.217,1.217,0,0,1,.809,1.132,1.329,1.329,0,0,1-.809.809,53.994,53.994,0,0,1-20.384,0,1.114,1.114,0,0,1-.809-1.294A1.075,1.075,0,0,1,359.021,110.571Z" transform="translate(-358.18 -109.6)" fill="#f03265"/>
      </g>
    </g>
    <g id="Group_715" data-name="Group 715" transform="translate(575.017 231.844)">
      <g id="Group_713" data-name="Group 713" transform="translate(9.091 0)">
        <path id="Path_630" data-name="Path 630" d="M385.812,174.921a72.4,72.4,0,0,1,.971,10.192,43.538,43.538,0,0,1-.971,10.192,1.217,1.217,0,0,1-1.133.809,1.329,1.329,0,0,1-.809-.809,43.537,43.537,0,0,1-.971-10.192,43.537,43.537,0,0,1,.971-10.192,1.114,1.114,0,0,1,1.294-.809A1.075,1.075,0,0,1,385.812,174.921Z" transform="translate(-382.9 -174.08)" fill="#f03265"/>
      </g>
      <g id="Group_714" data-name="Group 714" transform="translate(0 9.091)">
        <path id="Path_631" data-name="Path 631" d="M378.121,180.671a72.411,72.411,0,0,1,10.192-.971,43.54,43.54,0,0,1,10.192.971,1.217,1.217,0,0,1,.809,1.132,1.329,1.329,0,0,1-.809.809,53.993,53.993,0,0,1-20.384,0,1.114,1.114,0,0,1-.809-1.294A1.075,1.075,0,0,1,378.121,180.671Z" transform="translate(-377.28 -179.7)" fill="#f03265"/>
      </g>
    </g>
    <g id="Group_718" data-name="Group 718" transform="translate(492.51 385.696)">
      <g id="Group_716" data-name="Group 716" transform="translate(9.091)">
        <path id="Path_632" data-name="Path 632" d="M334.812,270.021a72.416,72.416,0,0,1,.971,10.192,43.542,43.542,0,0,1-.971,10.192,1.217,1.217,0,0,1-1.133.809,1.329,1.329,0,0,1-.809-.809,53.994,53.994,0,0,1,0-20.384,1.114,1.114,0,0,1,1.294-.809A1.615,1.615,0,0,1,334.812,270.021Z" transform="translate(-331.9 -269.18)" fill="#f03265"/>
      </g>
      <g id="Group_717" data-name="Group 717" transform="translate(0 9.091)">
        <path id="Path_633" data-name="Path 633" d="M327.121,275.771a72.405,72.405,0,0,1,10.192-.971,43.54,43.54,0,0,1,10.192.971,1.217,1.217,0,0,1,.809,1.132,1.329,1.329,0,0,1-.809.809,53.992,53.992,0,0,1-20.384,0,1.114,1.114,0,0,1-.809-1.294A.74.74,0,0,1,327.121,275.771Z" transform="translate(-326.28 -274.8)" fill="#f03265"/>
      </g>
    </g>
    <g id="Group_721" data-name="Group 721" transform="translate(416.797 80.58)">
      <g id="Group_719" data-name="Group 719" transform="translate(9.091)">
        <path id="Path_634" data-name="Path 634" d="M288.012,81.421a72.4,72.4,0,0,1,.971,10.192,43.537,43.537,0,0,1-.971,10.192,1.217,1.217,0,0,1-1.132.809,1.329,1.329,0,0,1-.809-.809,43.538,43.538,0,0,1-.971-10.192,43.538,43.538,0,0,1,.971-10.192,1.114,1.114,0,0,1,1.294-.809A3.527,3.527,0,0,1,288.012,81.421Z" transform="translate(-285.1 -80.58)" fill="#f03265"/>
      </g>
      <g id="Group_720" data-name="Group 720" transform="translate(0 9.091)">
        <path id="Path_635" data-name="Path 635" d="M280.321,87.171a72.407,72.407,0,0,1,10.192-.971,43.539,43.539,0,0,1,10.192.971,1.217,1.217,0,0,1,.809,1.132,1.329,1.329,0,0,1-.809.809,53.994,53.994,0,0,1-20.384,0,1.114,1.114,0,0,1-.809-1.294A.74.74,0,0,1,280.321,87.171Z" transform="translate(-279.48 -86.2)" fill="#f03265"/>
      </g>
    </g>
    <g id="Group_732" data-name="Group 732" transform="translate(274.594 301.765)">
      <g id="Group_722" data-name="Group 722" transform="translate(50.992 163.074)">
        <path id="Path_636" data-name="Path 636" d="M286.208,415.815a6.162,6.162,0,0,0,1.618.485,1.845,1.845,0,0,1,.971-.485c20.222-12.781,35.268-32.194,48.049-51.931l-24.429-9.707L300.283,318.1,238.16,338l9.383,27.179c-6.148,3.4-12.3,6.633-18.443,10.03A150.836,150.836,0,0,0,286.208,415.815Z" transform="translate(-219.393 -318.1)" fill="#ffa17d"/>
        <path id="Path_637" data-name="Path 637" d="M285.87,408.585a16.371,16.371,0,0,0,5.824,1.294,7.876,7.876,0,0,0,1.941-.162,12.419,12.419,0,0,0,4.853-2.1c22.487-14.237,39.151-36.239,52.578-57.108L340.714,346.3c-12.781,19.737-27.826,39.151-48.049,51.931a1.845,1.845,0,0,1-.971.485c-.485,0-1.294-.485-1.618-.485a150.331,150.331,0,0,1-57.108-40.607c-3.236,1.78-6.633,3.559-9.869,5.339A157.108,157.108,0,0,0,285.87,408.585Z" transform="translate(-223.1 -300.678)" fill="#d50036"/>
      </g>
      <g id="Group_723" data-name="Group 723" transform="translate(128.115 87.406)">
        <path id="Path_638" data-name="Path 638" d="M296.54,309.139a11.6,11.6,0,0,1-7.442,2.912c-5.824,0-11.648-3.883-14.4-8.9A27.669,27.669,0,0,1,270.979,286c1.294-9.06,10.677-17.8,20.222-13.589,10.516,4.692,13.751,20.384,9.869,30.253A15.631,15.631,0,0,1,296.54,309.139Z" transform="translate(-270.772 -271.328)" fill="#ff9d77"/>
        <path id="Path_639" data-name="Path 639" d="M288.976,297.219a5.97,5.97,0,0,1-3.883,1.618,9.29,9.29,0,0,1-7.6-4.692,14.432,14.432,0,0,1-1.941-8.9c.647-4.853,5.662-9.383,10.516-7.118,5.5,2.427,7.28,10.677,5.177,15.854A10.688,10.688,0,0,1,288.976,297.219Z" transform="translate(-267.899 -267.497)" fill="#ff8759"/>
      </g>
      <g id="Group_724" data-name="Group 724" transform="translate(11.404 128.049)">
        <path id="Path_640" data-name="Path 640" d="M222.849,333.9a11.568,11.568,0,0,0,7.28-3.559c3.883-4.368,4.853-11.325,3.074-16.663-1.941-5.662-5.177-10.839-10.192-14.237-7.6-5.177-20.384-3.883-23.62,5.824-3.559,11,5.986,23.943,15.854,27.664A17.036,17.036,0,0,0,222.849,333.9Z" transform="translate(-198.63 -296.451)" fill="#ff9d77"/>
        <path id="Path_641" data-name="Path 641" d="M216.72,321.531a5.615,5.615,0,0,0,3.721-1.941,9.041,9.041,0,0,0,1.618-8.736,14.53,14.53,0,0,0-5.339-7.442c-4.044-2.75-10.677-2.1-12.457,3.074-1.941,5.824,3.074,12.619,8.251,14.56A9.415,9.415,0,0,0,216.72,321.531Z" transform="translate(-195.413 -293.14)" fill="#ff8759"/>
      </g>
      <path id="Path_642" data-name="Path 642" d="M230.009,256.463a21.058,21.058,0,0,0-1.294-2.75l4.692-4.206-9.545-7.927-3.236,5.339a18.322,18.322,0,0,0-5.824-.971l-1.456-6.148L201.7,244.168l2.912,5.5a12.951,12.951,0,0,0-3.721,4.692l-5.986-1.941-2.1,12.133,6.309.162a19.56,19.56,0,0,0,.809,2.912,21.061,21.061,0,0,0,1.294,2.75l-4.692,4.206,9.545,7.927,3.236-5.339a18.322,18.322,0,0,0,5.824.971l1.456,6.148,11.648-4.368-2.912-5.5a12.95,12.95,0,0,0,3.721-4.692l5.986,1.941,2.1-12.133-6.309-.162A9.822,9.822,0,0,0,230.009,256.463Zm-11.648,14.4a9.42,9.42,0,1,1,5.5-12.133A9.463,9.463,0,0,1,218.361,270.862Z" transform="translate(-190.827 -203.4)" fill="#9592ad"/>
      <path id="Path_643" data-name="Path 643" d="M274.711,243.994c-.647-1.456-1.294-2.912-2.1-4.368l7.442-6.795-15.207-12.619-5.339,8.574a26.026,26.026,0,0,0-9.383-1.618l-2.265-9.869-18.443,6.957,4.853,8.9a24.3,24.3,0,0,0-5.986,7.442l-9.545-2.912L215.5,257.1l10.03.324a25.361,25.361,0,0,0,1.294,4.692c.647,1.456,1.294,2.912,2.1,4.368l-7.442,6.795,15.207,12.619,5.339-8.574a26.025,26.025,0,0,0,9.383,1.618l2.265,9.869,18.443-6.956-4.853-8.9a24.3,24.3,0,0,0,5.986-7.442l9.545,2.912,3.236-19.414-10.03-.324A22.309,22.309,0,0,0,274.711,243.994Zm-18.766,23.134a15.053,15.053,0,1,1,8.736-19.413A15.079,15.079,0,0,1,255.945,267.128Z" transform="translate(-176.803 -217.3)" fill="#9592ad"/>
      <g id="Group_725" data-name="Group 725" transform="translate(2.18 24.89)">
        <path id="Path_644" data-name="Path 644" d="M231.548,343.366a8.944,8.944,0,0,0-1.132-4.045c-3.236-7.927-6.633-15.854-9.869-23.782,3.721-.647,5.662-4.368,5.986-8.251s-1.132-7.6-2.75-11c-1.618-3.559-3.4-7.118-3.883-11a8.8,8.8,0,0,1,2.265-6.148c8.574-7.927,21.84-12.133,32.032-17.149-2.427,8.574-6.957,15.369-12.457,22.326a42.125,42.125,0,0,0,16.34-8.736c4.853-4.206,8.574-9.383,12.133-14.722.324,6.148-1.456,11.81-4.044,17.31a1.825,1.825,0,0,0,1.294-.162c10.03-4.206,14.884-12.942,22-20.546a70.246,70.246,0,0,0,5.824,13.428,18.75,18.75,0,0,0,4.53,5.5,10.468,10.468,0,0,0,6.471,2.588,250.9,250.9,0,0,0,11.163,28.311,13.226,13.226,0,0,0,1.941,3.236c2.1,1.941,5.339,1.941,8.089.809-3.721-10.839-7.765-21.678-11.81-32.518l-15.693-41.739a6.568,6.568,0,0,0-8.736-3.883l-93.994,36.077a6.6,6.6,0,0,0-3.721,8.9c10.354,24.267,20.87,48.7,31.547,72.8a14.343,14.343,0,0,0,2.75-1.294A8.189,8.189,0,0,0,231.548,343.366Z" transform="translate(-192.928 -232.685)" fill="#60427a"/>
        <path id="Path_645" data-name="Path 645" d="M323.052,320.539c-1.78-6.309-3.721-12.619-5.824-18.766-2.75,1.132-5.986,1.294-8.089-.809a8.256,8.256,0,0,1-1.941-3.236,250.9,250.9,0,0,1-11.163-28.311,10.468,10.468,0,0,1-6.471-2.589,24.9,24.9,0,0,1-4.53-5.5c-2.588-4.206-4.044-8.736-5.824-13.428-7.118,7.6-11.972,16.178-22,20.546a1.826,1.826,0,0,1-1.294.162c2.588-5.5,4.368-11.163,4.044-17.31-3.559,5.339-7.28,10.516-12.133,14.722a42.125,42.125,0,0,1-16.34,8.736c5.5-6.957,10.03-13.59,12.457-22.326-10.677,5.177-24.429,9.545-33,18.119-1.294,1.294-1.618,3.559-1.294,5.5.485,3.721,2.265,7.28,3.883,10.839s3.074,7.28,2.75,11c-.324,3.883-2.1,7.6-5.986,8.251,3.236,7.927,6.633,15.854,9.869,23.782a11.6,11.6,0,0,1,1.132,4.044,7.25,7.25,0,0,1-3.883,6.148,14.343,14.343,0,0,1-2.75,1.294l4.368,9.707c5.177,11.486,10.516,23.134,19.414,31.871,23.3,22.649,68.918,18.6,83.155-12.3C328.876,354.836,327.744,337.04,323.052,320.539Z" transform="translate(-182.673 -223.285)" fill="#ffb091"/>
      </g>
      <path id="Path_646" data-name="Path 646" d="M246.623,306.643c.324.971.647,1.78.809,2.427,1.78,4.044,6.309,7.6,10.839,7.28a11.6,11.6,0,0,0,6.471-2.265,6.243,6.243,0,0,0,2.1-6.309c-1.456-4.206-6.957-4.53-10.354-6.148a14.841,14.841,0,0,1-3.4-2.1c-1.294-1.132-4.044-6.148-6.148-5.177C244.2,295.642,245.329,302.6,246.623,306.643Z" transform="translate(-158.422 -169.777)" fill="#ff804f"/>
      <circle id="Ellipse_38" data-name="Ellipse 38" cx="4.692" cy="4.692" r="4.692" transform="translate(63.611 117.937)" fill="#352e28"/>
      <g id="Group_726" data-name="Group 726" transform="translate(55.452 115.665)">
        <path id="Path_647" data-name="Path 647" d="M225.926,304.981a15.511,15.511,0,0,1,11.486-15.854,12.746,12.746,0,0,1,6.957.324.84.84,0,0,1,.324.647.348.348,0,0,1-.324.324,23.269,23.269,0,0,0-5.986,1.618,16.409,16.409,0,0,0-5.177,2.912,17.45,17.45,0,0,0-6.148,10.354c0,.162-.324.324-.485.324C226.088,305.3,225.926,305.143,225.926,304.981Z" transform="translate(-225.857 -288.795)" fill="#443b32"/>
      </g>
      <circle id="Ellipse_39" data-name="Ellipse 39" cx="4.692" cy="4.692" r="4.692" transform="translate(106.159 102.73)" fill="#352e28"/>
      <g id="Group_727" data-name="Group 727" transform="translate(98 100.457)">
        <path id="Path_648" data-name="Path 648" d="M252.226,295.581a15.511,15.511,0,0,1,11.486-15.854,12.746,12.746,0,0,1,6.956.324.84.84,0,0,1,.324.647.348.348,0,0,1-.324.324,23.273,23.273,0,0,0-5.986,1.618,16.409,16.409,0,0,0-5.177,2.912,17.449,17.449,0,0,0-6.148,10.354c0,.162-.324.324-.485.324C252.388,295.9,252.226,295.743,252.226,295.581Z" transform="translate(-252.157 -279.395)" fill="#443b32"/>
      </g>
      <g id="Group_728" data-name="Group 728" transform="translate(46.462 102.22)">
        <path id="Path_649" data-name="Path 649" d="M220.3,297.335a16.763,16.763,0,0,1,1.78-6.148,21.162,21.162,0,0,1,9.221-9.221,13.072,13.072,0,0,1,6.471-1.456,1.83,1.83,0,0,1,1.78,1.941,1.607,1.607,0,0,1-1.132,1.618h0a46.579,46.579,0,0,0-5.015,2.1,27.379,27.379,0,0,0-4.692,2.75,30.4,30.4,0,0,0-4.044,3.883,24.718,24.718,0,0,0-3.074,4.853h0a.778.778,0,0,1-.971.324A1.226,1.226,0,0,1,220.3,297.335Z" transform="translate(-220.3 -280.485)" fill="#45315b"/>
      </g>
      <g id="Group_729" data-name="Group 729" transform="translate(86.764 86.714)">
        <path id="Path_650" data-name="Path 650" d="M247.62,270.9a39.618,39.618,0,0,1,5.177,1.456,27.2,27.2,0,0,0,5.177,1.456,31.594,31.594,0,0,0,5.5.485,33.459,33.459,0,0,0,5.662-.485c.324,0,.809.162.809.485s-.162.647-.324.647a22.954,22.954,0,0,1-5.824,2.265,27.709,27.709,0,0,1-12.619-.162,10.391,10.391,0,0,1-5.5-3.074,1.806,1.806,0,0,1,.162-2.588,3.688,3.688,0,0,1,1.78-.485Z" transform="translate(-245.211 -270.9)" fill="#45315b"/>
      </g>
      <g id="Group_730" data-name="Group 730" transform="translate(75.519 158.639)">
        <path id="Path_651" data-name="Path 651" d="M239.618,315.587a23.328,23.328,0,0,0,10.192,4.044c1.78.324,3.721.647,5.5.971,1.78.162,3.721.324,5.5.324a52.533,52.533,0,0,0,11.163-1.294,54.3,54.3,0,0,0,10.839-3.883h0a.778.778,0,0,1,.971.324.711.711,0,0,1-.162.809,35.186,35.186,0,0,1-10.516,6.633,36.558,36.558,0,0,1-5.986,1.78,42.088,42.088,0,0,1-6.309.809,32.35,32.35,0,0,1-12.457-1.78,21.822,21.822,0,0,1-5.824-2.912,12.531,12.531,0,0,1-4.206-5.015.778.778,0,0,1,.324-.971.906.906,0,0,1,.971.162Z" transform="translate(-238.261 -315.359)" fill="#ff662b"/>
      </g>
      <path id="Path_652" data-name="Path 652" d="M197.2,420.473c1.618,4.044,3.236,8.089,5.177,12.133l44.651-22.973L241.851,397.5Z" transform="translate(-188.109 -105.973)" fill="#d50036"/>
      <g id="Group_731" data-name="Group 731" transform="translate(0 213.064)">
        <path id="Path_653" data-name="Path 653" d="M432.34,431.022A217,217,0,0,0,421.5,391.872a64.259,64.259,0,0,0-36.077-36.886L370.216,349c-13.428,20.87-29.929,42.872-52.578,57.108a15.4,15.4,0,0,1-4.853,2.1,7.878,7.878,0,0,1-1.941.162,16.371,16.371,0,0,1-5.824-1.294,159.951,159.951,0,0,1-62.932-45.46c-5.662,3.074-11.486,6.148-17.149,9.383-11.163,6.148-22.973,12.781-28.959,23.943-6.633,12.457-4.853,27.664-.647,41.092,1.456,4.692,3.074,9.545,5.015,14.56L245,427.625l5.177,12.133s13.589,27.826,19.414,54.358c5.824,26.37-17.634,31.062-17.634,31.062-14.722-1.294-33.812-40.93-33.812-40.93l-6.309,109.363H392.866l-9.06-141.072L381.541,439.6Z" transform="translate(-191.581 -349)" fill="#f03265"/>
        <path id="Path_654" data-name="Path 654" d="M359.8,399.7,309,408.274l2.265,12.619,49.99-9.06A103.391,103.391,0,0,0,359.8,399.7Z" transform="translate(-119.04 -317.678)" fill="#d50036"/>
        <path id="Path_655" data-name="Path 655" d="M246.831,490.32s23.458-4.692,17.634-31.062S245.051,404.9,245.051,404.9L200.4,427.873a111.165,111.165,0,0,0,12.781,21.517C213.019,449.389,232.109,489.187,246.831,490.32Z" transform="translate(-186.132 -314.465)" fill="#ffb091"/>
      </g>
      <path id="Path_656" data-name="Path 656" d="M310.5,416.013l23.782,141.072H375.7S365.02,450.633,356.769,407.6Z" transform="translate(-118.113 -99.734)" fill="#ffb091"/>
      <path id="Path_657" data-name="Path 657" d="M279.992,492.943c-3.883,16.825-8.251,34.459-18.928,48.048a33.663,33.663,0,0,1-12.781,10.516c-5.015,2.265-11.163,2.75-16.178.485-7.118-3.236-11-11.163-12.457-18.766-1.78-9.383-.971-15.854,2.588-24.591,3.559-9.221,7.442-18.6,11.325-27.664,12.3-28.8,26.208-56.623,39.151-85.1a15.823,15.823,0,0,0,1.456-4.692c.162-4.368-3.883-7.6-5.5-11.325-1.941-4.53-2.588-9.383-3.721-14.075-1.456-6.795-4.206-13.913-10.354-17.31-1.456-.809-3.074-1.294-4.206-2.588-1.132-1.133-1.456-3.236-.324-4.368a5.654,5.654,0,0,1,2.1-.809c7.442-.809,13.913,4.692,21.031,6.471,9.545,2.427,19.737-1.941,26.694-8.736A56.677,56.677,0,0,0,310.244,323.4a80.685,80.685,0,0,0,3.721-8.574,53.69,53.69,0,0,1,4.692-9.707,3.541,3.541,0,0,1,1.456-1.618c.971-.647,2.589,0,3.236.971,1.456,1.78,1.294,4.853.809,7.118-.647,2.75-1.132,5.5-1.618,8.413-1.132,6.148-2.588,12.3-4.206,18.281a7.051,7.051,0,0,1,5.824,1.78,6.426,6.426,0,0,1,1.78,5.824,6.746,6.746,0,0,1,5.339,8.089A17.024,17.024,0,0,1,333.7,356.4,8.713,8.713,0,0,1,335,359.8c.485,2.912-.647,4.853-2.1,7.118a60.271,60.271,0,0,1-12.619,13.751c-4.692,4.692-10.677,7.927-16.016,11.648a3.528,3.528,0,0,0-.809.647,2.732,2.732,0,0,0-.324.809c-2.1,6.795-3.236,13.913-4.853,20.708-1.618,7.28-3.4,14.56-5.015,21.84C288.728,455.41,284.36,474.177,279.992,492.943Z" transform="translate(-174.804 -164.207)" fill="#ffc3ab"/>
    </g>
    <g id="Group_748" data-name="Group 748" transform="translate(286.457 105.998)">
      <g id="Group_747" data-name="Group 747" transform="translate(0)">
        <g id="Group_733" data-name="Group 733" transform="translate(0 6.309)" opacity="0.1">
          <path id="Path_658" data-name="Path 658" d="M300.577,159.352A41.473,41.473,0,1,0,230.2,189.119a39.331,39.331,0,0,1,12.3,28.311v.647h33v-.647a38.409,38.409,0,0,1,11.81-27.826A40.542,40.542,0,0,0,300.577,159.352Z" transform="translate(-187.353 -89.288)"/>
          <path id="Path_659" data-name="Path 659" d="M269.251,186.795H233.5a3.417,3.417,0,0,1-3.4-3.4h0a3.417,3.417,0,0,1,3.4-3.4h35.753a3.417,3.417,0,0,1,3.4,3.4h0A3.417,3.417,0,0,1,269.251,186.795Z" transform="translate(-179.647 -50.886)"/>
          <path id="Path_660" data-name="Path 660" d="M269.251,191.095H233.5a3.417,3.417,0,0,1-3.4-3.4h0a3.417,3.417,0,0,1,3.4-3.4h35.753a3.417,3.417,0,0,1,3.4,3.4h0A3.417,3.417,0,0,1,269.251,191.095Z" transform="translate(-179.647 -48.23)"/>
          <path id="Path_661" data-name="Path 661" d="M269.251,195.295H233.5a3.417,3.417,0,0,1-3.4-3.4h0a3.417,3.417,0,0,1,3.4-3.4h35.753a3.417,3.417,0,0,1,3.4,3.4h0A3.317,3.317,0,0,1,269.251,195.295Z" transform="translate(-179.647 -45.635)"/>
          <path id="Path_662" data-name="Path 662" d="M269.251,199.595H233.5a3.417,3.417,0,0,1-3.4-3.4h0a3.417,3.417,0,0,1,3.4-3.4h35.753a3.417,3.417,0,0,1,3.4,3.4h0A3.417,3.417,0,0,1,269.251,199.595Z" transform="translate(-179.647 -42.979)"/>
          <path id="Path_663" data-name="Path 663" d="M248.345,201.853h-4.692A4.867,4.867,0,0,1,238.8,197h14.237A4.836,4.836,0,0,1,248.345,201.853Z" transform="translate(-174.272 -40.384)"/>
          <path id="Path_664" data-name="Path 664" d="M243.207,202.388,233.5,145.28l6.148,6.956,5.824-8.736,3.721,8.736,5.015-8.736,3.4,8.736,7.442-6.956-9.707,57.108" transform="translate(-177.546 -73.436)" fill="none" stroke="#000" stroke-miterlimit="10" stroke-width="1.056"/>
          <path id="Path_665" data-name="Path 665" d="M247.329,103.6l-1.456,15.531a1.448,1.448,0,0,1-1.618,1.294,1.276,1.276,0,0,1-1.294-1.294L241.505,103.6a3.091,3.091,0,0,1,6.148-.647C247.329,103.279,247.329,103.441,247.329,103.6Z" transform="translate(-172.609 -100.192)"/>
          <path id="Path_666" data-name="Path 666" d="M228.466,106.483l5.339,14.722a1.507,1.507,0,0,1-.971,1.941,1.36,1.36,0,0,1-1.78-.647l-8.089-13.428a3.052,3.052,0,0,1,5.177-3.236C228.3,106.16,228.466,106.322,228.466,106.483Z" transform="translate(-184.322 -97.572)"/>
          <path id="Path_667" data-name="Path 667" d="M212.619,117.351l11.163,11a1.379,1.379,0,0,1,0,2.1,1.473,1.473,0,0,1-1.941.162l-13.1-8.574a3.116,3.116,0,0,1-.971-4.206,3.081,3.081,0,0,1,4.206-.971C212.3,117.189,212.457,117.189,212.619,117.351Z" transform="translate(-193.713 -90.158)"/>
          <path id="Path_668" data-name="Path 668" d="M203,134.046l14.884,5.015a1.507,1.507,0,0,1,.971,1.941,1.435,1.435,0,0,1-1.618.971l-15.531-1.941a2.961,2.961,0,0,1-2.589-3.4,3.047,3.047,0,0,1,3.4-2.588C202.516,133.885,202.84,133.885,203,134.046Z" transform="translate(-198.817 -79.351)"/>
          <path id="Path_669" data-name="Path 669" d="M201.642,153.951l15.531-1.941a1.369,1.369,0,0,1,1.618,1.294,1.346,1.346,0,0,1-.971,1.618l-14.884,5.015a3.07,3.07,0,1,1-1.941-5.824A1.223,1.223,0,0,1,201.642,153.951Z" transform="translate(-198.914 -68.194)"/>
          <path id="Path_670" data-name="Path 670" d="M208.61,174.279l13.1-8.574a1.438,1.438,0,0,1,2.1.485,1.7,1.7,0,0,1-.162,1.941l-11.163,11a3.089,3.089,0,0,1-4.368-4.368Q208.367,174.279,208.61,174.279Z" transform="translate(-193.748 -59.887)"/>
          <path id="Path_671" data-name="Path 671" d="M280.148,179.178l-11.163-11a1.379,1.379,0,0,1,0-2.1,1.473,1.473,0,0,1,1.941-.162l13.1,8.574a3.116,3.116,0,0,1,.971,4.206,3.081,3.081,0,0,1-4.206.971C280.31,179.34,280.148,179.34,280.148,179.178Z" transform="translate(-155.923 -59.771)"/>
          <path id="Path_672" data-name="Path 672" d="M290.893,160.139l-14.884-5.015a1.507,1.507,0,0,1-.971-1.941,1.435,1.435,0,0,1,1.618-.971l15.531,1.941a3.02,3.02,0,0,1-.809,5.986Z" transform="translate(-151.947 -68.073)"/>
          <path id="Path_673" data-name="Path 673" d="M292.261,140.139l-15.531,1.941a1.369,1.369,0,0,1-1.618-1.294,1.346,1.346,0,0,1,.971-1.618l14.884-5.015a3.07,3.07,0,0,1,1.941,5.824A1.223,1.223,0,0,1,292.261,140.139Z" transform="translate(-151.858 -79.297)"/>
          <path id="Path_674" data-name="Path 674" d="M283.993,122.278l-13.1,8.574a1.438,1.438,0,0,1-2.1-.485,1.7,1.7,0,0,1,.162-1.941l11.163-11a3.089,3.089,0,0,1,4.368,4.368Q284.236,122.278,283.993,122.278Z" transform="translate(-155.886 -90.07)"/>
          <path id="Path_675" data-name="Path 675" d="M267.862,109.253l-8.089,13.428a1.531,1.531,0,0,1-2.75-1.294l5.339-14.722a3.02,3.02,0,0,1,5.662,2.1A1.627,1.627,0,0,0,267.862,109.253Z" transform="translate(-163.05 -97.43)"/>
        </g>
        <g id="Group_746" data-name="Group 746">
          <g id="Group_745" data-name="Group 745">
            <path id="Path_676" data-name="Path 676" d="M300.577,155.452A41.473,41.473,0,1,0,230.2,185.219a39.33,39.33,0,0,1,12.3,28.311v.647h33v-.647a38.409,38.409,0,0,1,11.81-27.826A40.542,40.542,0,0,0,300.577,155.452Z" transform="translate(-187.353 -85.388)" fill="#ffed69"/>
            <path id="Path_677" data-name="Path 677" d="M269.251,182.895H233.5a3.417,3.417,0,0,1-3.4-3.4h0a3.417,3.417,0,0,1,3.4-3.4h35.753a3.417,3.417,0,0,1,3.4,3.4h0A3.417,3.417,0,0,1,269.251,182.895Z" transform="translate(-179.647 -46.986)" fill="#d6d7db"/>
            <path id="Path_678" data-name="Path 678" d="M269.251,187.095H233.5a3.417,3.417,0,0,1-3.4-3.4h0a3.417,3.417,0,0,1,3.4-3.4h35.753a3.417,3.417,0,0,1,3.4,3.4h0A3.317,3.317,0,0,1,269.251,187.095Z" transform="translate(-179.647 -44.392)" fill="#9592ad"/>
            <path id="Path_679" data-name="Path 679" d="M269.251,191.395H233.5a3.417,3.417,0,0,1-3.4-3.4h0a3.417,3.417,0,0,1,3.4-3.4h35.753a3.417,3.417,0,0,1,3.4,3.4h0A3.317,3.317,0,0,1,269.251,191.395Z" transform="translate(-179.647 -41.735)" fill="#d6d7db"/>
            <path id="Path_680" data-name="Path 680" d="M269.251,195.695H233.5a3.417,3.417,0,0,1-3.4-3.4h0a3.417,3.417,0,0,1,3.4-3.4h35.753a3.417,3.417,0,0,1,3.4,3.4h0A3.417,3.417,0,0,1,269.251,195.695Z" transform="translate(-179.647 -39.079)" fill="#9592ad"/>
            <path id="Path_681" data-name="Path 681" d="M248.345,197.953h-4.692A4.867,4.867,0,0,1,238.8,193.1h14.237A4.836,4.836,0,0,1,248.345,197.953Z" transform="translate(-174.272 -36.484)" fill="#787796"/>
            <path id="Path_682" data-name="Path 682" d="M243.207,198.488,233.5,141.38l6.148,6.957,5.824-8.736,3.721,8.736,5.015-8.736,3.4,8.736,7.442-6.957-9.707,57.108" transform="translate(-177.546 -69.536)" fill="none" stroke="#98979c" stroke-miterlimit="10" stroke-width="1.056"/>
            <g id="Group_734" data-name="Group 734" transform="translate(68.882)">
              <path id="Path_683" data-name="Path 683" d="M247.329,99.7l-1.456,15.531a1.448,1.448,0,0,1-1.618,1.294,1.276,1.276,0,0,1-1.294-1.294L241.505,99.7a3.091,3.091,0,0,1,6.148-.647C247.329,99.379,247.329,99.541,247.329,99.7Z" transform="translate(-241.492 -96.292)" fill="#ffed69"/>
            </g>
            <g id="Group_735" data-name="Group 735" transform="translate(38.21 6.86)">
              <path id="Path_684" data-name="Path 684" d="M228.466,102.583l5.339,14.722a1.507,1.507,0,0,1-.971,1.941,1.36,1.36,0,0,1-1.78-.647l-8.089-13.428a3.052,3.052,0,0,1,5.177-3.236C228.3,102.26,228.466,102.421,228.466,102.583Z" transform="translate(-222.532 -100.532)" fill="#ffed69"/>
            </g>
            <g id="Group_736" data-name="Group 736" transform="translate(13.62 26.274)">
              <path id="Path_685" data-name="Path 685" d="M212.619,113.451l11.163,11a1.379,1.379,0,0,1,0,2.1,1.473,1.473,0,0,1-1.941.162l-13.1-8.574a3.052,3.052,0,1,1,3.236-5.177C212.3,113.289,212.457,113.289,212.619,113.451Z" transform="translate(-207.332 -112.532)" fill="#ffed69"/>
            </g>
            <g id="Group_737" data-name="Group 737" transform="translate(0.252 54.483)">
              <path id="Path_686" data-name="Path 686" d="M203,130.019l14.884,5.015a1.507,1.507,0,0,1,.971,1.941,1.435,1.435,0,0,1-1.618.971L201.708,136a3.02,3.02,0,1,1,.809-5.986Z" transform="translate(-199.069 -129.969)" fill="#ffed69"/>
            </g>
            <g id="Group_738" data-name="Group 738" transform="translate(0 83.791)">
              <path id="Path_687" data-name="Path 687" d="M201.642,150.051l15.531-1.941a1.369,1.369,0,0,1,1.618,1.294,1.346,1.346,0,0,1-.971,1.618l-14.884,5.015a3.07,3.07,0,0,1-1.941-5.824A1.223,1.223,0,0,1,201.642,150.051Z" transform="translate(-198.914 -148.085)" fill="#ffed69"/>
            </g>
            <g id="Group_739" data-name="Group 739" transform="translate(13.527 105.544)">
              <path id="Path_688" data-name="Path 688" d="M208.61,170.379l13.1-8.574a1.438,1.438,0,0,1,2.1.485,1.7,1.7,0,0,1-.162,1.941l-11.163,11a3.089,3.089,0,0,1-4.368-4.368Q208.367,170.379,208.61,170.379Z" transform="translate(-207.275 -161.531)" fill="#ffed69"/>
            </g>
            <g id="Group_740" data-name="Group 740" transform="translate(112.577 105.848)">
              <path id="Path_689" data-name="Path 689" d="M280.148,175.278l-11.163-11a1.379,1.379,0,0,1,0-2.1,1.473,1.473,0,0,1,1.941-.162l13.1,8.574a3.052,3.052,0,0,1-3.236,5.177C280.31,175.44,280.148,175.44,280.148,175.278Z" transform="translate(-268.5 -161.719)" fill="#ffed69"/>
            </g>
            <g id="Group_741" data-name="Group 741" transform="translate(122.991 83.946)">
              <path id="Path_690" data-name="Path 690" d="M290.893,156.139l-14.884-5.015a1.507,1.507,0,0,1-.971-1.941,1.435,1.435,0,0,1,1.618-.971l15.531,1.941a3.02,3.02,0,0,1-.809,5.986A.3.3,0,0,1,290.893,156.139Z" transform="translate(-274.937 -148.181)" fill="#ffed69"/>
            </g>
            <g id="Group_742" data-name="Group 742" transform="translate(123.223 54.717)">
              <path id="Path_691" data-name="Path 691" d="M292.261,136.239l-15.531,1.941a1.369,1.369,0,0,1-1.618-1.294,1.346,1.346,0,0,1,.971-1.618l14.884-5.015a3.07,3.07,0,0,1,1.941,5.824A1.223,1.223,0,0,1,292.261,136.239Z" transform="translate(-275.081 -130.114)" fill="#ffed69"/>
            </g>
            <g id="Group_743" data-name="Group 743" transform="translate(112.675 26.505)">
              <path id="Path_692" data-name="Path 692" d="M283.993,118.378l-13.1,8.574a1.438,1.438,0,0,1-2.1-.485,1.7,1.7,0,0,1,.162-1.941l11.163-11a3.089,3.089,0,0,1,4.368,4.368Q284.236,118.378,283.993,118.378Z" transform="translate(-268.561 -112.675)" fill="#ffed69"/>
            </g>
            <g id="Group_744" data-name="Group 744" transform="translate(93.914 7.232)">
              <path id="Path_693" data-name="Path 693" d="M267.862,105.353l-8.089,13.428a1.531,1.531,0,0,1-2.75-1.294l5.339-14.722a3.02,3.02,0,0,1,5.662,2.1A1.627,1.627,0,0,0,267.862,105.353Z" transform="translate(-256.964 -100.762)" fill="#ffed69"/>
            </g>
          </g>
        </g>
      </g>
      <path id="Path_694" data-name="Path 694" d="M268.721,133.4c-1.78,3.236-8.251,3.074-14.237-.485-5.986-3.4-9.383-8.9-7.6-12.133s8.251-3.074,14.237.485S270.5,130.328,268.721,133.4Z" transform="translate(-169.572 -82.589)" fill="#fff"/>
    </g>
  </g>
</svg>
