<?xml version="1.0" encoding="UTF-8" standalone="no"?>
<svg
   id="svg2"
   viewBox="0 0 4.8 4.8"
   width="50"
   height="50"
   version="1.1"
   sodipodi:docname="telegram.svg"
   inkscape:version="1.1.1 (3bf5ae0d25, 2021-09-20)"
   xmlns:inkscape="http://www.inkscape.org/namespaces/inkscape"
   xmlns:sodipodi="http://sodipodi.sourceforge.net/DTD/sodipodi-0.dtd"
   xmlns="http://www.w3.org/2000/svg"
   xmlns:svg="http://www.w3.org/2000/svg">
  <defs
     id="defs21" />
  <sodipodi:namedview
     id="namedview19"
     pagecolor="#ffffff"
     bordercolor="#666666"
     borderopacity="1.0"
     inkscape:pageshadow="2"
     inkscape:pageopacity="0.0"
     inkscape:pagecheckerboard="0"
     showgrid="false"
     inkscape:zoom="8.064"
     inkscape:cx="-4.0922619"
     inkscape:cy="48.053076"
     inkscape:window-width="1920"
     inkscape:window-height="1005"
     inkscape:window-x="0"
     inkscape:window-y="0"
     inkscape:window-maximized="1"
     inkscape:current-layer="svg2"
     width="50px" />
  <style
     id="style2">.st0{fill:url(#path2995-1-0_1_)}.st1{fill:#c8daea}.st2{fill:#a9c9dd}.st3{fill:url(#path2991_1_)}</style>
  <linearGradient
     id="path2995-1-0_1_"
     gradientUnits="userSpaceOnUse"
     x1="-683.30499"
     y1="534.84497"
     x2="-693.30499"
     y2="511.51199"
     gradientTransform="matrix(0.12,0,0,-0.12,85.1,64.94)">
    <stop
       offset="0"
       stop-color="#37aee2"
       id="stop4" />
    <stop
       offset="1"
       stop-color="#1e96c8"
       id="stop6" />
  </linearGradient>
  <path
     id="path2995-1-0"
     class="st0"
     d="M 4.8,2.4 C 4.8,3.726 3.726,4.8 2.4,4.8 1.074,4.8 0,3.726 0,2.4 0,1.074 1.074,0 2.4,0 3.726,0 4.8,1.074 4.8,2.4 Z"
     style="fill:url(#path2995-1-0_1_);stroke-width:0.02" />
  <path
     id="path2993"
     class="st1"
     d="M 1.96,3.5 C 1.882,3.5 1.896,3.47 1.868,3.396 L 1.64,2.644 3.056,1.76 3.222,1.804 3.084,2.18 Z"
     style="stroke-width:0.02" />
  <path
     id="path2989"
     class="st2"
     d="M 1.96,3.5 C 2.02,3.5 2.046,3.472 2.08,3.44 2.132,3.39 2.8,2.74 2.8,2.74 L 2.39,2.64 2.01,2.88 1.96,3.48 Z"
     style="stroke-width:0.02" />
  <linearGradient
     id="path2991_1_"
     gradientUnits="userSpaceOnUse"
     x1="128.991"
     y1="118.245"
     x2="153.991"
     y2="78.245003"
     gradientTransform="matrix(0.02,0,0,-0.02,0,4.84)">
    <stop
       offset="0"
       stop-color="#eff7fc"
       id="stop12" />
    <stop
       offset="1"
       stop-color="#fff"
       id="stop14" />
  </linearGradient>
  <path
     id="path2991"
     class="st3"
     d="m 2,2.888 0.968,0.714 c 0.11,0.06 0.19,0.03 0.218,-0.102 L 3.58,1.644 C 3.62,1.482 3.518,1.41 3.412,1.458 L 1.1,2.35 C 0.942,2.414 0.944,2.502 1.072,2.54 L 1.666,2.726 3.04,1.86 C 3.104,1.82 3.164,1.842 3.116,1.886 Z"
     style="fill:url(#path2991_1_);stroke-width:0.02" />
</svg>
