<svg xmlns="http://www.w3.org/2000/svg" width="49.155" height="49.155" viewBox="0 0 49.155 49.155">
  <g id="vk" transform="translate(0 0)">
    <g id="Group_672" data-name="Group 672" transform="translate(0 0)">
      <circle id="XMLID_11_" cx="24.578" cy="24.578" r="24.578" fill="#4d76a1"/>
    </g>
    <path id="Path_608" data-name="Path 608" d="M33.729,57.189h1.929a1.627,1.627,0,0,0,.88-.385,1.412,1.412,0,0,0,.265-.847s-.038-2.588,1.164-2.97c1.184-.375,2.7,2.5,4.317,3.608a3.055,3.055,0,0,0,2.145.654l4.31-.06s2.255-.139,1.186-1.912a14.4,14.4,0,0,0-3.2-3.708c-2.7-2.508-2.34-2.1.915-6.441,1.982-2.642,2.775-4.255,2.528-4.946-.236-.658-1.694-.484-1.694-.484l-4.853.03a1.1,1.1,0,0,0-.627.11,1.36,1.36,0,0,0-.428.521,28.1,28.1,0,0,1-1.792,3.784c-2.161,3.669-3.025,3.863-3.378,3.635-.821-.531-.616-2.133-.616-3.271,0-3.556.539-5.038-1.05-5.422a8.286,8.286,0,0,0-2.265-.225,10.459,10.459,0,0,0-4.027.412c-.552.27-.978.873-.719.907a2.178,2.178,0,0,1,1.432.72,4.682,4.682,0,0,1,.48,2.2s.286,4.186-.667,4.706c-.654.357-1.551-.372-3.478-3.7a30.945,30.945,0,0,1-1.732-3.59,1.442,1.442,0,0,0-.4-.541,2.011,2.011,0,0,0-.746-.3l-4.611.03s-.692.019-.946.32c-.226.268-.018.821-.018.821s3.61,8.446,7.7,12.7a11.072,11.072,0,0,0,8,3.646Z" transform="translate(-10.08 -21.832)" fill="#fff" fill-rule="evenodd"/>
  </g>
</svg>
