<svg width="32" height="32" viewBox="0 0 32 32" fill="none" xmlns="http://www.w3.org/2000/svg">
<circle cx="16" cy="16" r="16" fill="#00E676"/>
<path d="M20.6356 11.2567C20.0275 10.6425 19.3032 10.1555 18.5049 9.82408C17.7066 9.49269 16.8503 9.32357 15.986 9.32658C12.3644 9.32658 9.4128 12.2782 9.4128 15.8998C9.4128 17.0605 9.71792 18.1881 10.2883 19.183L9.35974 22.5923L12.842 21.677C13.8038 22.201 14.8849 22.4796 15.986 22.4796C19.6075 22.4796 22.5592 19.528 22.5592 15.9064C22.5592 14.1487 21.876 12.4971 20.6356 11.2567ZM15.986 21.3653C15.0043 21.3653 14.0426 21.0999 13.2002 20.6025L13.0012 20.4831L10.9317 21.027L11.4823 19.0106L11.3496 18.805C10.8042 17.934 10.5146 16.9274 10.5139 15.8998C10.5139 12.8884 12.968 10.4343 15.9794 10.4343C17.4386 10.4343 18.8116 11.0047 19.8397 12.0394C20.3488 12.5462 20.7522 13.1489 21.0266 13.8127C21.301 14.4765 21.4409 15.1881 21.4382 15.9064C21.4515 18.9177 18.9973 21.3653 15.986 21.3653ZM18.9841 17.2794C18.8182 17.1998 18.009 16.8018 17.8631 16.7421C17.7105 16.6891 17.6044 16.6625 17.4917 16.8217C17.3789 16.9876 17.0671 17.359 16.9743 17.4651C16.8814 17.5779 16.7819 17.5912 16.6161 17.5049C16.4503 17.4253 15.9197 17.2462 15.2962 16.6891C14.8053 16.2513 14.4803 15.714 14.3808 15.5482C14.288 15.3824 14.3676 15.2962 14.4538 15.2099C14.5268 15.137 14.6196 15.0176 14.6992 14.9247C14.7788 14.8319 14.812 14.7589 14.865 14.6528C14.9181 14.54 14.8916 14.4472 14.8518 14.3676C14.812 14.288 14.4803 13.4788 14.3477 13.1471C14.215 12.8287 14.0757 12.8685 13.9762 12.8619H13.6578C13.5451 12.8619 13.3726 12.9017 13.2201 13.0675C13.0742 13.2333 12.6497 13.6313 12.6497 14.4405C12.6497 15.2497 13.24 16.0324 13.3196 16.1385C13.3992 16.2513 14.4803 17.9095 16.1253 18.6192C16.5166 18.7917 16.8217 18.8912 17.0605 18.9642C17.4519 19.0902 17.81 19.0703 18.0952 19.0305C18.4136 18.9841 19.0703 18.6325 19.2029 18.2478C19.3422 17.8631 19.3422 17.5381 19.2958 17.4651C19.2494 17.3922 19.1499 17.359 18.9841 17.2794Z" fill="white"/>
</svg>
