<?xml version="1.0" encoding="UTF-8" standalone="no"?>
<!DOCTYPE svg PUBLIC "-//W3C//DTD SVG 1.1//EN" "http://www.w3.org/Graphics/SVG/1.1/DTD/svg11.dtd">
<svg width="100%" height="100%" viewBox="0 0 424 424" version="1.1" xmlns="http://www.w3.org/2000/svg" xmlns:xlink="http://www.w3.org/1999/xlink" xml:space="preserve" xmlns:serif="http://www.serif.com/" style="fill-rule:evenodd;clip-rule:evenodd;stroke-linejoin:round;stroke-miterlimit:2;">
    <g id="_2GIS" serif:id="2GIS" transform="matrix(1.00172,0,0,0.966354,0.151063,-0.211746)">
        <path d="M314.119,261.306C237.705,261.694 225.344,309.41 221.224,349.756L219.352,367.601L203.993,367.601L202.12,349.756C198.001,309.41 185.265,261.694 111.473,261.306C99.112,234.924 93.868,213.588 93.868,189.535C93.868,129.406 141.439,73.152 211.859,73.152C282.279,73.152 329.101,129.015 329.101,189.925C329.102,213.588 326.854,234.924 314.119,261.306ZM211.111,0.219C94.993,0.219 -0.151,98.757 -0.151,219.406C-0.151,340.445 94.993,438.982 211.111,438.982C328.352,438.982 423.12,340.445 423.12,219.406C423.12,98.758 328.352,0.219 211.111,0.219Z" style="fill:rgb(41,178,74);fill-rule:nonzero;"/>
    </g>
</svg>
