<svg width="32" height="32" viewBox="0 0 32 32" fill="none" xmlns="http://www.w3.org/2000/svg">
<circle cx="16" cy="16" r="16" fill="url(#paint0_radial_29_308)"/>
<g clip-path="url(#clip0_29_308)">
<path d="M13.613 15.9189C13.613 14.6452 14.6452 13.6124 15.9189 13.6124C17.1926 13.6124 18.2254 14.6452 18.2254 15.9189C18.2254 17.1926 17.1926 18.2254 15.9189 18.2254C14.6452 18.2254 13.613 17.1926 13.613 15.9189ZM12.3661 15.9189C12.3661 17.8811 13.9567 19.4717 15.9189 19.4717C17.8811 19.4717 19.4717 17.8811 19.4717 15.9189C19.4717 13.9567 17.8811 12.3661 15.9189 12.3661C13.9567 12.3661 12.3661 13.9567 12.3661 15.9189ZM18.7821 12.2253C18.782 12.3895 18.8306 12.55 18.9218 12.6866C19.013 12.8232 19.1426 12.9296 19.2943 12.9925C19.446 13.0554 19.6129 13.072 19.774 13.04C19.9351 13.008 20.083 12.929 20.1992 12.8129C20.3154 12.6969 20.3945 12.5489 20.4266 12.3879C20.4587 12.2269 20.4423 12.0599 20.3795 11.9082C20.3168 11.7564 20.2104 11.6267 20.0739 11.5354C19.9374 11.4442 19.7769 11.3954 19.6127 11.3953H19.6123C19.3922 11.3954 19.1812 11.4829 19.0255 11.6385C18.8698 11.7941 18.7823 12.0052 18.7821 12.2253ZM13.1237 21.5508C12.4491 21.52 12.0825 21.4077 11.8388 21.3127C11.5158 21.187 11.2853 21.0372 11.043 20.7952C10.8006 20.5532 10.6506 20.3229 10.5254 19.9999C10.4304 19.7564 10.3181 19.3896 10.2874 18.715C10.2539 17.9857 10.2472 17.7667 10.2472 15.919C10.2472 14.0713 10.2544 13.8528 10.2874 13.1229C10.3181 12.4483 10.4313 12.0823 10.5254 11.838C10.6512 11.515 10.801 11.2845 11.043 11.0422C11.285 10.7999 11.5152 10.6499 11.8388 10.5247C12.0824 10.4297 12.4491 10.3173 13.1237 10.2866C13.853 10.2531 14.0721 10.2464 15.9189 10.2464C17.7658 10.2464 17.9851 10.2537 18.715 10.2866C19.3896 10.3174 19.7556 10.4306 19.9999 10.5247C20.3229 10.6499 20.5534 10.8002 20.7957 11.0422C21.038 11.2842 21.1875 11.515 21.3132 11.838C21.4082 12.0816 21.5206 12.4483 21.5513 13.1229C21.5848 13.8528 21.5915 14.0713 21.5915 15.919C21.5915 17.7667 21.5848 17.9851 21.5513 18.715C21.5205 19.3896 21.4076 19.7563 21.3132 19.9999C21.1875 20.3229 21.0377 20.5534 20.7957 20.7952C20.5537 21.037 20.3229 21.187 19.9999 21.3127C19.7563 21.4077 19.3896 21.5201 18.715 21.5508C17.9857 21.5843 17.7666 21.591 15.9189 21.591C14.0712 21.591 13.8528 21.5843 13.1237 21.5508ZM13.0664 9.0419C12.3298 9.07544 11.8265 9.19224 11.387 9.36327C10.9318 9.5399 10.5464 9.77686 10.1613 10.1613C9.77625 10.5458 9.5399 10.9318 9.36327 11.387C9.19224 11.8268 9.07544 12.3298 9.0419 13.0664C9.0078 13.8041 9 14.04 9 15.9189C9 17.7979 9.0078 18.0337 9.0419 18.7715C9.07544 19.5081 9.19224 20.011 9.36327 20.4509C9.5399 20.9058 9.7763 21.2922 10.1613 21.6765C10.5464 22.0608 10.9318 22.2974 11.387 22.4746C11.8273 22.6456 12.3298 22.7624 13.0664 22.7959C13.8045 22.8295 14.04 22.8378 15.9189 22.8378C17.7979 22.8378 18.0337 22.83 18.7715 22.7959C19.5081 22.7624 20.011 22.6456 20.4509 22.4746C20.9058 22.2974 21.2914 22.061 21.6765 21.6765C22.0616 21.292 22.2974 20.9058 22.4746 20.4509C22.6456 20.011 22.7629 19.508 22.7959 18.7715C22.8295 18.0332 22.8373 17.7979 22.8373 15.9189C22.8373 14.04 22.8295 13.8041 22.7959 13.0664C22.7624 12.3298 22.6456 11.8265 22.4746 11.387C22.2974 10.932 22.061 10.5464 21.6765 10.1613C21.292 9.77625 20.9058 9.5399 20.4514 9.36327C20.011 9.19224 19.508 9.07489 18.772 9.0419C18.0343 9.00836 17.7984 9 15.9195 9C14.0405 9 13.8045 9.0078 13.0664 9.0419Z" fill="white"/>
<path d="M13.613 15.9189C13.613 14.6452 14.6452 13.6124 15.9189 13.6124C17.1926 13.6124 18.2254 14.6452 18.2254 15.9189C18.2254 17.1926 17.1926 18.2254 15.9189 18.2254C14.6452 18.2254 13.613 17.1926 13.613 15.9189ZM12.3661 15.9189C12.3661 17.8811 13.9567 19.4717 15.9189 19.4717C17.8811 19.4717 19.4717 17.8811 19.4717 15.9189C19.4717 13.9567 17.8811 12.3661 15.9189 12.3661C13.9567 12.3661 12.3661 13.9567 12.3661 15.9189ZM18.7821 12.2253C18.782 12.3895 18.8306 12.55 18.9218 12.6866C19.013 12.8232 19.1426 12.9296 19.2943 12.9925C19.446 13.0554 19.6129 13.072 19.774 13.04C19.9351 13.008 20.083 12.929 20.1992 12.8129C20.3154 12.6969 20.3945 12.5489 20.4266 12.3879C20.4587 12.2269 20.4423 12.0599 20.3795 11.9082C20.3168 11.7564 20.2104 11.6267 20.0739 11.5354C19.9374 11.4442 19.7769 11.3954 19.6127 11.3953H19.6123C19.3922 11.3954 19.1812 11.4829 19.0255 11.6385C18.8698 11.7941 18.7823 12.0052 18.7821 12.2253ZM13.1237 21.5508C12.4491 21.52 12.0825 21.4077 11.8388 21.3127C11.5158 21.187 11.2853 21.0372 11.043 20.7952C10.8006 20.5532 10.6506 20.3229 10.5254 19.9999C10.4304 19.7564 10.3181 19.3896 10.2874 18.715C10.2539 17.9857 10.2472 17.7667 10.2472 15.919C10.2472 14.0713 10.2544 13.8528 10.2874 13.1229C10.3181 12.4483 10.4313 12.0823 10.5254 11.838C10.6512 11.515 10.801 11.2845 11.043 11.0422C11.285 10.7999 11.5152 10.6499 11.8388 10.5247C12.0824 10.4297 12.4491 10.3173 13.1237 10.2866C13.853 10.2531 14.0721 10.2464 15.9189 10.2464C17.7658 10.2464 17.9851 10.2537 18.715 10.2866C19.3896 10.3174 19.7556 10.4306 19.9999 10.5247C20.3229 10.6499 20.5534 10.8002 20.7957 11.0422C21.038 11.2842 21.1875 11.515 21.3132 11.838C21.4082 12.0816 21.5206 12.4483 21.5513 13.1229C21.5848 13.8528 21.5915 14.0713 21.5915 15.919C21.5915 17.7667 21.5848 17.9851 21.5513 18.715C21.5205 19.3896 21.4076 19.7563 21.3132 19.9999C21.1875 20.3229 21.0377 20.5534 20.7957 20.7952C20.5537 21.037 20.3229 21.187 19.9999 21.3127C19.7563 21.4077 19.3896 21.5201 18.715 21.5508C17.9857 21.5843 17.7666 21.591 15.9189 21.591C14.0712 21.591 13.8528 21.5843 13.1237 21.5508ZM13.0664 9.0419C12.3298 9.07544 11.8265 9.19224 11.387 9.36327C10.9318 9.5399 10.5464 9.77686 10.1613 10.1613C9.77625 10.5458 9.5399 10.9318 9.36327 11.387C9.19224 11.8268 9.07544 12.3298 9.0419 13.0664C9.0078 13.8041 9 14.04 9 15.9189C9 17.7979 9.0078 18.0337 9.0419 18.7715C9.07544 19.5081 9.19224 20.011 9.36327 20.4509C9.5399 20.9058 9.7763 21.2922 10.1613 21.6765C10.5464 22.0608 10.9318 22.2974 11.387 22.4746C11.8273 22.6456 12.3298 22.7624 13.0664 22.7959C13.8045 22.8295 14.04 22.8378 15.9189 22.8378C17.7979 22.8378 18.0337 22.83 18.7715 22.7959C19.5081 22.7624 20.011 22.6456 20.4509 22.4746C20.9058 22.2974 21.2914 22.061 21.6765 21.6765C22.0616 21.292 22.2974 20.9058 22.4746 20.4509C22.6456 20.011 22.7629 19.508 22.7959 18.7715C22.8295 18.0332 22.8373 17.7979 22.8373 15.9189C22.8373 14.04 22.8295 13.8041 22.7959 13.0664C22.7624 12.3298 22.6456 11.8265 22.4746 11.387C22.2974 10.932 22.061 10.5464 21.6765 10.1613C21.292 9.77625 20.9058 9.5399 20.4514 9.36327C20.011 9.19224 19.508 9.07489 18.772 9.0419C18.0343 9.00836 17.7984 9 15.9195 9C14.0405 9 13.8045 9.0078 13.0664 9.0419Z" fill="white"/>
</g>
<defs>
<radialGradient id="paint0_radial_29_308" cx="0" cy="0" r="1" gradientUnits="userSpaceOnUse" gradientTransform="translate(4.25156 32.1512) scale(41.775 41.7733)">
<stop offset="0.09" stop-color="#FA8F21"/>
<stop offset="0.78" stop-color="#D82D7E"/>
</radialGradient>
<clipPath id="clip0_29_308">
<rect width="13.8378" height="13.8378" fill="white" transform="translate(9 9)"/>
</clipPath>
</defs>
</svg>
