<svg width="174" height="64" viewBox="0 0 174 64" fill="none" xmlns="http://www.w3.org/2000/svg">
<g clip-path="url(#clip0_29_292)">
<path d="M56.808 12.3769V25.2893H65.2481V27.9651H67.5467V22.9906H66.2538V12.377H63.7396V22.9906H59.3221V12.377H56.8079L56.808 12.3769ZM68.7678 12.3769V25.2893H75.8431V22.9906H71.2819V19.758H75.8431V17.4593H71.2819V14.6757H75.8431V12.3771H68.7678V12.3769ZM77.621 12.3769V25.2893H80.135V19.74H84.7682V25.2893H87.2822V12.3769H84.7682V17.4412H80.135V12.3769H77.621V12.3769ZM88.3597 14.6756H90.7122V25.2892H93.2263V14.6756H95.6147V12.3769H88.3598V14.6756H88.3597ZM96.9076 25.2892H99.4038V20.584H100.858C103.211 20.584 105.114 18.7342 105.114 16.4714C105.114 14.2086 103.193 12.3768 100.84 12.3768H96.9076V25.2892V25.2892ZM99.4038 14.6756H100.535C101.648 14.6756 102.528 15.4658 102.528 16.4715C102.528 17.4771 101.631 18.2853 100.535 18.2853H99.4038V14.6757V14.6756ZM118.511 25.2892L113.087 12.3768H111.184L105.761 25.2892H108.436L109.711 22.0386H114.542L115.835 25.2892H118.511ZM113.68 19.758H110.591L112.136 15.7711L113.68 19.758V19.758ZM123.701 12.3769L118.511 25.2893H121.169L124.886 15.8968L128.603 25.2893H131.261L126.071 12.3769H123.701H123.701ZM134.834 19.3269H136.002C137.025 19.3269 137.941 20.171 137.941 21.1947C137.941 22.1824 137.079 22.9906 136.002 22.9906H134.834V19.327V19.3269ZM132.32 12.3769V25.2893H136.145C138.57 25.2893 140.527 23.4754 140.527 21.2307C140.527 18.9139 138.57 17.0282 136.145 17.0282H134.834V12.377H132.32L132.32 12.3769ZM142.017 12.3769V25.2893H144.531V19.74H149.165V25.2893H151.679V12.3769H149.165V17.4412H144.531V12.3769H142.017V12.3769ZM56.8079 30.2013V43.1137H59.3221V32.5001H63.3446V30.2014H56.808L56.8079 30.2013ZM76.2202 43.1137L70.7969 30.2013H68.8934L63.4703 43.1137H66.146L67.421 39.8632H72.2516L73.5446 43.1137H76.2203H76.2202ZM71.3896 37.5824H68.3009L69.8453 33.5956L71.3896 37.5824ZM76.8488 43.1137H79.7221C82.2362 43.1137 84.2832 41.5334 84.2832 39.5938C84.2832 37.9955 83.4393 36.5947 82.1823 36.1817C83.0981 35.661 83.565 34.9605 83.565 33.4699C83.565 31.674 81.8589 30.2014 79.758 30.2014H76.8488V32.5001H79.7041C80.4404 32.5001 81.0329 33.0748 81.0329 33.7932C81.0329 34.6014 80.4404 35.2658 79.7041 35.2658H77.208V37.5645H79.7221C80.8175 37.5645 81.6974 38.3188 81.6974 39.2347C81.6974 40.1147 80.8175 40.815 79.7221 40.815H76.8488V43.1137V43.1137ZM92.2745 29.95C88.4853 29.95 85.4147 32.9851 85.4147 36.7384C85.4147 40.402 88.4853 43.3832 92.2745 43.3832C96.0635 43.3832 99.1343 40.402 99.1343 36.7384C99.1343 32.9851 96.0635 29.95 92.2745 29.95ZM92.2745 32.2487C94.6448 32.2487 96.5484 34.2421 96.5484 36.7384C96.5484 39.127 94.6448 41.0844 92.2745 41.0844C89.9041 41.0844 88.0006 39.127 88.0006 36.7384C88.0006 34.2421 89.9041 32.2487 92.2745 32.2487ZM100.679 43.1138H104.378C107.036 43.1138 109.191 41.3539 109.191 39.1808C109.191 37.3311 107.988 36.5588 106.892 36.1099C107.754 35.8045 108.454 34.7091 108.454 33.47C108.454 31.6741 106.748 30.2014 104.629 30.2014H100.679V43.1139L100.679 43.1138ZM103.193 37.5645H104.629C105.725 37.5645 106.605 38.2829 106.605 39.1808C106.605 40.0788 105.725 40.8151 104.629 40.8151H103.193V37.5646V37.5645ZM103.193 32.5001H104.378C105.24 32.5001 105.94 33.0928 105.94 33.8112C105.94 34.6193 105.258 35.2658 104.414 35.2658H103.193V32.5002V32.5001ZM63.1291 58.909C60.7946 58.909 58.8552 56.9515 58.8552 54.5629C58.8372 52.0846 60.7587 50.0732 63.1291 50.0732C64.3862 50.0732 65.9485 50.6838 66.4333 51.8512H69.3245C68.7678 49.6063 66.0024 47.7746 63.1291 47.7746C59.3579 47.7746 56.2693 50.8096 56.2693 54.5629C56.2693 58.2265 59.3579 61.2077 63.1291 61.2077C65.8408 61.2077 68.6242 59.3938 69.3065 57.0592H66.4333C65.8766 58.2625 64.422 58.909 63.1291 58.909V58.909ZM156.186 19.327H157.353C158.377 19.327 159.293 20.1711 159.293 21.1948C159.293 22.1825 158.431 22.9907 157.353 22.9907H156.186V19.3271V19.327ZM162.453 25.2893H164.932V12.377H162.453V25.2893ZM153.672 12.377V25.2893H157.497C159.921 25.2893 161.879 23.4754 161.879 21.2307C161.879 18.914 159.921 17.0283 157.497 17.0283H156.186V12.3771H153.672V12.377ZM166.925 12.377V25.2893H174V22.9907H169.439V19.7581H174V17.4593H169.439V14.6758H174V12.3771H166.925V12.377ZM113.267 37.1515H114.434C115.458 37.1515 116.374 37.9956 116.374 39.0192C116.374 40.0069 115.512 40.8151 114.434 40.8151H113.267V37.1515V37.1515ZM119.534 43.1138H122.013V30.2014H119.534V43.1138ZM110.753 30.2014V43.1138H114.578C117.002 43.1138 118.96 41.3 118.96 39.0551C118.96 36.7384 117.002 34.8527 114.578 34.8527H113.267V30.2014H110.753V30.2014ZM124.006 30.2014V43.1138H131.081V40.8151H126.52V37.5825H131.081V35.2838H126.52V32.5003H131.081V30.2015H124.006V30.2014ZM70.9048 48.0258V60.9383H77.9801V58.6395H73.4189V55.407H77.9801V53.1083H73.4189V50.3247H77.9801V48.0259H70.9048V48.0258ZM78.8241 50.3246H81.1767V60.9382H83.6908V50.3246H86.0792V48.0258H78.8242V50.3246H78.8241ZM87.3542 60.9382H90.1556L95.507 52.2641V60.9382H98.0211V48.0258H95.2196L89.8683 56.8435V48.0258H87.3542V60.9382Z" fill="#03405D"/>
<path fill-rule="evenodd" clip-rule="evenodd" d="M22.8422 0C22.8422 0 13.0722 10.1299 23.9812 27.1536C34.8902 44.1772 36.8687 51.6703 31.2939 61.8003C34.9684 61.5931 44.871 55.4908 44.6168 41.8992C44.3687 28.6359 32.5702 21.1646 26.8671 12.2826C24.545 8.6663 22.9276 4.7295 22.8422 0V0Z" fill="#03405D"/>
<path fill-rule="evenodd" clip-rule="evenodd" d="M31.2938 61.8004C34.9684 61.5932 44.8709 55.4908 44.6167 41.8993C44.3687 28.6359 32.5702 21.1647 26.867 12.2826C24.545 8.66638 22.9275 4.72958 22.8421 7.62939e-05C17.9002 16.1375 31.0691 22.1779 36.4663 33.7416C40.3644 42.0937 42.5278 53.9912 31.2938 61.8004V61.8004Z" fill="url(#paint0_linear_29_292)"/>
<path fill-rule="evenodd" clip-rule="evenodd" d="M15.4445 13.1313C13.3282 15.8649 6.11531 26.705 13.9357 38.9087C22.7281 52.6123 25.5789 54.4553 22.3075 64C37.5777 47.8064 5.18177 33.6804 15.4445 13.1313Z" fill="url(#paint1_linear_29_292)"/>
<path fill-rule="evenodd" clip-rule="evenodd" d="M41.2166 16.8731C40.2978 15.4257 38.7815 13.8564 37.4889 12.787C34.5122 10.3242 31.01 8.84259 27.2182 8.20458L26.865 8.14514L26.7154 7.81969C26.2713 6.85393 25.8947 5.85886 25.6019 4.83695L25.3225 3.86172L26.3302 3.97773C31.7657 4.60277 36.8128 6.67715 40.8864 10.3594C42.402 11.7295 44.265 13.8181 45.2061 15.6718L45.2794 15.8164V33.8532L43.9955 31.259C43.2275 29.7079 42.3251 28.2267 41.3378 26.806L41.2166 26.6318V16.873L41.2166 16.8731Z" fill="url(#paint2_linear_29_292)"/>
<path fill-rule="evenodd" clip-rule="evenodd" d="M0 15.8164V34.276L1.28469 31.6635C2.04301 30.1216 2.93477 28.6395 3.93588 27.2433L4.06267 27.0663V16.8777C5.01864 15.3714 6.57199 13.7758 7.93021 12.6725C10.4641 10.6138 13.3889 9.2448 16.5587 8.50544L16.9967 8.40331L17.0724 7.9601C17.1405 7.56091 17.2198 7.16383 17.3107 6.76933C17.4365 6.22105 17.5894 5.67817 17.7625 5.14293L18.1114 4.06389L16.996 4.26842C12.0914 5.16781 7.58865 7.32 3.96314 10.7598C2.60338 12.0501 0.935431 13.973 0.0731747 15.6719L0 15.8165L0 15.8164Z" fill="url(#paint3_linear_29_292)"/>
<path fill-rule="evenodd" clip-rule="evenodd" d="M22.3074 64C24.9824 63.7538 29.7748 62.3713 30.8276 52.9779C31.1953 49.697 30.3476 46.516 29.132 43.4933C27.1275 38.5091 24.0129 33.5014 21.1202 28.9871C18.0444 24.1874 15.7913 18.7557 15.4443 13.1313C5.18165 33.6803 37.5777 47.8064 22.3074 64Z" fill="url(#paint4_linear_29_292)"/>
<path fill-rule="evenodd" clip-rule="evenodd" d="M6.97861 26.6377C4.26554 29.8532 -3.76855 41.0218 3.86588 52.9354C7.76902 59.6101 13.6534 62.314 18.793 63.6919L18.816 63.6319C21.9065 55.6382 18.6051 52.2879 14.3824 45.8091C13.2762 44.1123 12.153 42.4253 11.0747 40.7423C8.2415 36.3213 6.83934 31.5433 6.97854 26.6377H6.97861Z" fill="#03405D"/>
<path fill-rule="evenodd" clip-rule="evenodd" d="M18.793 63.6919L18.816 63.6319C21.9065 55.6382 18.6051 52.2879 14.3824 45.8091C13.2763 44.1123 12.1531 42.4253 11.0748 40.7423C8.24157 36.3213 6.83941 31.5433 6.97861 26.6377C-0.875342 48.2233 16.9038 50.883 18.793 63.6919H18.793Z" fill="url(#paint5_linear_29_292)"/>
</g>
<defs>
<linearGradient id="paint0_linear_29_292" x1="44.6216" y1="61.8004" x2="44.6218" y2="16.9849" gradientUnits="userSpaceOnUse">
<stop stop-color="#33BDE7"/>
<stop offset="0.741176" stop-color="#1B7FA2"/>
<stop offset="1" stop-color="#03405D"/>
</linearGradient>
<linearGradient id="paint1_linear_29_292" x1="13.8723" y1="38.5647" x2="30.6851" y2="38.5647" gradientUnits="userSpaceOnUse">
<stop stop-color="#898989"/>
<stop offset="1" stop-color="#FEFEFE"/>
</linearGradient>
<linearGradient id="paint2_linear_29_292" x1="33.6789" y1="6.75334" x2="42.5059" y2="28.7815" gradientUnits="userSpaceOnUse">
<stop stop-color="#9D9E9E"/>
<stop offset="0.490196" stop-color="#EBECEC"/>
<stop offset="1" stop-color="#9D9E9E"/>
</linearGradient>
<linearGradient id="paint3_linear_29_292" x1="-5.82769" y1="22.3664" x2="-0.586679" y2="5.8941" gradientUnits="userSpaceOnUse">
<stop stop-color="#03405C"/>
<stop offset="0.490196" stop-color="#33BDE7"/>
<stop offset="1" stop-color="#03405C"/>
</linearGradient>
<linearGradient id="paint4_linear_29_292" x1="18.6217" y1="43.416" x2="27.563" y2="43.416" gradientUnits="userSpaceOnUse">
<stop stop-color="#FEFEFE"/>
<stop offset="1" stop-color="#727271"/>
</linearGradient>
<linearGradient id="paint5_linear_29_292" x1="20.0294" y1="63.6919" x2="20.0294" y2="28.4538" gradientUnits="userSpaceOnUse">
<stop stop-color="#33BDE7"/>
<stop offset="1" stop-color="#03405D"/>
</linearGradient>
<clipPath id="clip0_29_292">
<rect width="174" height="64" fill="white"/>
</clipPath>
</defs>
</svg>
