<?xml version="1.0" standalone="no"?>
<!DOCTYPE svg PUBLIC "-//W3C//DTD SVG 20010904//EN"
 "http://www.w3.org/TR/2001/REC-SVG-20010904/DTD/svg10.dtd">
<svg version="1.0" xmlns="http://www.w3.org/2000/svg"
 width="1024.000000pt" height="1024.000000pt" viewBox="0 0 1024.000000 1024.000000"
 preserveAspectRatio="xMidYMid meet">
<metadata>
Created by potrace 1.14, written by Peter Selinger 2001-2017
</metadata>
<g transform="translate(0.000000,1024.000000) scale(0.100000,-0.100000)"
fill="#000000" stroke="none">
<path d="M5059 10188 c-18 -24 -37 -47 -42 -53 -81 -98 -220 -336 -300 -515
-32 -72 -76 -183 -82 -205 -2 -10 -6 -22 -28 -80 -6 -16 -12 -34 -12 -40 -1
-5 -7 -30 -14 -55 -7 -25 -14 -49 -15 -55 -1 -5 -5 -19 -9 -30 -3 -11 -8 -31
-11 -45 -8 -38 -15 -71 -26 -120 -6 -25 -12 -61 -14 -80 -3 -19 -6 -35 -7 -35
-1 0 -3 -11 -4 -25 -1 -14 -5 -44 -9 -66 -10 -65 -15 -129 -21 -271 -2 -72 -5
-135 -6 -140 -1 -4 -1 -10 0 -13 1 -3 4 -59 6 -125 2 -66 7 -145 10 -175 4
-30 9 -71 11 -90 7 -76 14 -126 19 -150 3 -14 7 -38 10 -55 3 -26 31 -159 55
-265 67 -295 242 -754 410 -1075 53 -101 112 -208 135 -245 12 -19 25 -42 29
-50 10 -22 21 -40 119 -195 48 -77 133 -211 187 -298 55 -88 100 -163 100
-167 0 -5 4 -10 8 -12 4 -1 17 -19 28 -38 12 -19 72 -118 134 -220 62 -102
123 -203 135 -225 11 -22 36 -65 55 -95 19 -30 35 -57 36 -60 1 -7 35 -66 61
-106 12 -19 20 -34 16 -34 -3 0 0 -8 8 -17 14 -18 22 -31 60 -101 11 -20 32
-57 45 -82 14 -25 56 -103 93 -175 38 -71 77 -146 87 -165 10 -19 19 -37 19
-40 4 -15 41 -86 48 -88 4 -2 7 -8 7 -14 0 -6 21 -54 46 -106 25 -53 53 -114
62 -137 8 -22 18 -42 21 -45 3 -3 11 -18 18 -35 6 -16 37 -93 68 -170 60 -146
133 -345 141 -380 2 -11 8 -31 13 -45 19 -51 50 -159 80 -280 30 -124 37 -157
46 -215 3 -16 7 -39 9 -50 2 -11 7 -45 11 -75 4 -30 9 -66 11 -80 25 -139 25
-595 0 -725 -2 -11 -7 -45 -12 -75 -4 -30 -8 -57 -9 -60 -2 -9 -17 -90 -18
-97 -4 -43 -105 -391 -117 -408 -4 -5 -13 -28 -20 -50 -7 -22 -18 -53 -25 -70
-58 -140 -100 -233 -169 -370 -45 -88 -82 -163 -84 -167 -5 -10 71 -1 143 17
33 9 67 17 76 19 69 17 264 107 377 173 41 24 75 43 77 43 3 0 53 34 161 109
107 75 190 147 344 301 110 110 135 137 250 277 69 83 204 288 273 413 58 107
149 297 162 340 1 3 9 22 18 44 9 21 17 43 17 48 0 5 5 19 12 31 7 12 13 27
14 32 1 6 16 52 33 103 17 51 33 101 34 110 1 9 6 23 10 30 5 6 6 12 3 12 -3
0 1 18 9 40 8 22 12 40 10 40 -3 0 -1 10 4 23 5 13 12 41 15 63 4 21 8 46 11
54 9 30 34 187 41 250 3 25 7 56 9 70 13 74 19 233 18 470 0 249 -4 328 -19
425 -4 22 -7 51 -9 65 -1 14 -6 48 -10 75 -5 28 -9 59 -11 70 -1 11 -3 20 -4
20 -1 0 -3 7 -5 15 -27 136 -42 196 -75 310 -46 153 -44 149 -54 172 -4 9 -9
22 -10 30 -2 7 -8 26 -14 41 -7 16 -12 31 -12 34 0 3 -6 19 -14 36 -8 18 -31
73 -51 122 -20 50 -43 101 -50 115 -7 14 -37 72 -65 130 -44 88 -102 196 -140
260 -102 172 -244 384 -352 530 -87 117 -108 145 -123 163 -6 6 -37 46 -70 87
-32 41 -61 77 -64 80 -4 3 -32 37 -63 75 -31 39 -66 80 -78 93 -11 12 -19 22
-16 22 2 0 -8 13 -22 28 -15 15 -52 57 -82 92 -30 36 -66 77 -80 92 -14 15
-43 48 -65 74 -22 25 -49 56 -60 68 -11 12 -54 60 -95 106 -41 47 -79 90 -85
96 -5 6 -37 41 -70 79 -33 37 -73 82 -89 99 -16 17 -86 96 -155 176 -69 80
-131 150 -136 156 -6 6 -27 31 -46 54 -18 23 -40 48 -46 55 -7 7 -60 73 -118
147 -58 73 -112 140 -118 148 -7 8 -49 67 -95 130 -45 63 -85 120 -90 125 -34
45 -161 250 -252 410 -45 80 -190 378 -194 400 -1 6 -7 19 -13 30 -6 11 -18
40 -26 65 -9 25 -30 86 -47 135 -18 50 -33 98 -35 108 -2 9 -6 21 -9 25 -3 5
-7 19 -10 33 -3 13 -17 67 -30 119 -23 85 -44 180 -51 235 -2 11 -6 34 -9 50
-16 90 -38 326 -38 418 0 20 -4 37 -7 37 -4 0 -23 -19 -42 -42z"/>
<path d="M5510 9596 c5 -14 6 -26 3 -26 -4 0 -2 -5 5 -12 7 -7 12 -19 12 -27
0 -22 57 -201 100 -316 35 -93 108 -265 116 -274 2 -2 49 -12 106 -23 57 -10
112 -21 123 -24 11 -2 29 -6 40 -8 252 -52 563 -164 820 -294 50 -25 105 -52
123 -61 17 -8 32 -19 32 -23 0 -4 6 -8 13 -8 7 0 36 -16 64 -35 29 -19 57 -35
62 -35 5 0 11 -3 13 -7 2 -5 30 -26 63 -48 33 -21 72 -48 86 -60 15 -11 39
-29 55 -40 122 -88 373 -322 484 -454 25 -29 55 -65 68 -80 13 -14 44 -55 70
-91 25 -36 49 -67 52 -70 20 -16 23 -119 24 -829 1 -618 4 -785 14 -789 6 -2
12 -7 12 -12 0 -4 40 -68 88 -141 161 -244 203 -318 392 -696 77 -156 142
-283 143 -283 1 0 2 649 2 1443 l-1 1442 -33 60 c-19 33 -42 72 -52 87 -11 14
-19 29 -19 33 0 3 -6 13 -12 20 -29 32 -38 45 -38 53 0 4 -8 17 -18 28 -10 10
-33 40 -51 67 -19 26 -38 47 -43 47 -4 0 -8 5 -8 11 0 6 -6 16 -12 23 -7 7
-31 35 -53 61 -120 145 -322 348 -465 465 -30 25 -57 47 -60 51 -25 29 -283
210 -450 315 -79 50 -315 171 -440 227 -199 88 -567 212 -720 242 -8 2 -15 4
-15 5 0 1 -9 3 -20 5 -11 1 -63 12 -115 23 -52 11 -115 23 -140 27 -25 3 -70
10 -100 15 -30 5 -75 12 -100 15 -25 3 -61 7 -80 10 -19 3 -61 7 -93 11 l-57
6 10 -26z"/>
<path d="M4285 9579 c-17 -5 -43 -10 -60 -13 -16 -2 -30 -5 -30 -6 0 -1 -13
-3 -30 -5 -16 -2 -41 -6 -55 -9 -14 -4 -38 -9 -55 -12 -126 -22 -493 -127
-610 -174 -11 -5 -63 -25 -115 -45 -52 -21 -117 -48 -144 -61 -28 -13 -54 -24
-60 -24 -5 0 -17 -7 -27 -16 -9 -8 -23 -16 -31 -18 -20 -3 -253 -127 -256
-137 -2 -5 -9 -9 -15 -9 -7 0 -32 -14 -57 -30 -25 -17 -60 -38 -77 -46 -18 -9
-33 -20 -33 -25 0 -5 -5 -9 -10 -9 -10 0 -229 -156 -289 -205 -128 -106 -187
-160 -321 -294 -147 -148 -174 -177 -245 -266 -16 -20 -37 -45 -45 -54 -8 -9
-28 -35 -44 -56 -17 -22 -32 -42 -35 -45 -7 -6 -84 -122 -129 -196 -18 -28
-32 -55 -32 -61 0 -6 -7 -16 -15 -23 -13 -11 -15 -190 -15 -1499 l0 -1486 35
70 c19 39 35 76 35 83 0 6 3 12 8 12 4 0 13 15 21 33 34 79 156 322 163 325 4
2 8 12 8 23 0 10 5 19 10 19 6 0 10 5 10 11 0 25 174 312 292 481 l68 97 0
817 0 816 56 79 c30 43 61 84 67 91 7 7 29 34 49 59 48 59 167 187 237 253 29
28 68 65 85 81 59 56 152 131 266 214 30 22 60 45 67 51 7 5 15 10 18 10 3 0
11 5 18 10 91 80 494 286 692 355 28 9 59 21 70 25 19 8 92 32 108 36 4 1 9 3
12 4 3 1 8 3 13 4 4 2 27 8 52 15 25 7 52 15 60 17 8 2 39 10 68 18 29 8 53
14 55 14 23 -1 77 17 78 26 0 6 2 18 4 26 1 8 10 53 19 100 9 47 18 96 21 110
9 48 75 277 104 362 32 95 33 94 -34 77z"/>
<path d="M3898 8108 c-7 -13 -11 -27 -9 -33 1 -5 0 -7 -4 -3 -7 7 -55 -43 -55
-56 0 -7 -10 -20 -37 -51 -7 -7 -13 -16 -13 -19 0 -4 -13 -25 -30 -48 -16 -22
-30 -47 -30 -54 0 -7 -4 -14 -9 -16 -9 -3 -87 -130 -121 -198 -13 -25 -27 -48
-32 -51 -5 -3 -10 -9 -9 -12 0 -4 -29 -66 -64 -139 -93 -196 -209 -496 -230
-598 -4 -19 -11 -41 -16 -50 -4 -8 -18 -58 -30 -110 -26 -119 -28 -127 -35
-170 -3 -19 -8 -38 -11 -43 -2 -4 -7 -29 -9 -55 -3 -26 -7 -60 -10 -77 -10
-54 -14 -89 -21 -170 -8 -104 -8 -502 0 -580 13 -117 19 -159 33 -237 3 -18 7
-42 8 -53 20 -142 129 -512 195 -660 5 -11 22 -49 37 -85 49 -113 158 -321
225 -430 36 -58 72 -116 80 -130 8 -14 16 -27 19 -30 3 -3 21 -30 40 -60 19
-30 38 -56 42 -58 5 -2 8 -8 8 -13 0 -8 248 -391 270 -416 5 -7 15 -24 22 -38
6 -14 15 -25 20 -25 4 0 8 -6 8 -14 0 -7 7 -19 15 -26 9 -7 22 -27 31 -45 8
-18 24 -42 34 -53 11 -12 20 -23 20 -26 0 -3 22 -38 49 -78 129 -193 271 -409
271 -414 0 -3 5 -10 10 -17 13 -16 95 -144 145 -227 21 -36 43 -66 47 -68 4
-2 8 -7 8 -12 0 -5 20 -43 45 -84 25 -42 45 -81 45 -85 0 -5 4 -11 8 -13 19
-7 237 -449 246 -498 1 -3 8 -25 17 -50 22 -61 39 -115 44 -137 3 -10 9 -38
16 -63 6 -25 12 -54 14 -65 2 -11 6 -29 8 -40 14 -58 21 -167 21 -305 0 -179
-6 -245 -40 -420 -20 -107 -20 -105 -49 -215 -15 -55 -28 -104 -29 -110 -6
-27 -32 -108 -57 -182 -15 -46 -24 -85 -20 -87 4 -3 23 -2 41 1 19 2 48 6 65
8 16 2 30 4 30 5 0 2 15 5 60 13 17 3 46 11 65 17 19 6 42 13 50 15 67 15 220
91 320 158 70 47 290 257 290 277 0 5 7 15 15 23 23 24 135 207 135 222 0 7 4
15 8 17 20 8 156 363 176 460 3 13 7 32 10 43 2 11 11 49 20 85 8 35 13 66 11
69 -3 2 0 10 5 17 6 6 10 16 8 20 -1 5 2 29 7 54 4 25 9 54 11 65 1 11 5 36 9
55 4 19 8 51 10 70 2 19 7 69 11 110 14 139 7 420 -12 525 -3 17 -7 46 -9 65
-2 19 -4 35 -5 35 -2 0 -8 32 -15 84 -3 25 -8 49 -11 53 -3 5 -7 19 -9 31 -7
47 -36 170 -44 182 -3 6 -7 21 -9 35 -2 13 -8 30 -14 37 -6 7 -8 13 -5 13 7 0
-85 270 -124 365 -7 17 -13 32 -14 35 -4 11 -19 48 -48 115 -28 66 -39 93
-105 240 -50 111 -275 554 -352 690 -153 272 -289 506 -300 515 -3 3 -11 16
-18 30 -23 44 -46 83 -85 143 -20 31 -37 62 -37 67 0 6 -3 10 -7 10 -5 0 -20
21 -36 48 -32 55 -32 55 -114 183 -35 54 -63 103 -63 108 0 6 -4 11 -9 11 -5
0 -13 9 -16 20 -3 11 -12 26 -18 33 -7 7 -17 22 -23 32 -6 11 -44 71 -83 134
-103 162 -203 336 -282 489 -38 73 -74 141 -79 150 -37 70 -173 379 -171 389
0 2 -9 24 -20 50 -35 79 -99 261 -135 381 -18 62 -36 117 -39 122 -3 4 -7 21
-9 37 -3 15 -14 61 -24 101 -11 39 -18 72 -16 72 3 0 1 8 -5 18 -5 9 -11 35
-14 57 -3 22 -8 47 -11 55 -3 8 -7 31 -10 50 -3 19 -8 46 -11 60 -3 14 -8 39
-10 55 -2 17 -6 46 -9 65 -13 84 -17 119 -23 185 -3 39 -6 87 -7 107 -1 43
-10 48 -28 16z"/>
<path d="M2509 5908 c-29 -35 -56 -66 -61 -69 -5 -3 -10 -10 -11 -15 0 -5 -38
-60 -84 -121 -46 -62 -83 -115 -83 -119 0 -3 -14 -24 -31 -45 -17 -21 -27 -39
-22 -39 4 0 3 -4 -3 -8 -5 -4 -32 -43 -59 -87 -26 -44 -54 -90 -62 -102 -7
-13 -13 -26 -12 -29 0 -4 -3 -10 -8 -13 -15 -11 -145 -263 -197 -381 -46 -104
-117 -283 -121 -305 -3 -11 -9 -29 -14 -40 -5 -11 -15 -40 -22 -65 -16 -58
-15 -53 -22 -70 -7 -17 -35 -123 -43 -160 -3 -14 -10 -43 -16 -65 -6 -22 -12
-44 -13 -50 0 -9 -9 -58 -21 -120 -2 -11 -7 -40 -10 -65 -3 -25 -7 -52 -10
-60 -2 -8 -6 -38 -8 -65 -3 -28 -8 -84 -12 -125 -10 -105 -12 -339 -3 -372 5
-17 4 -28 -2 -28 -6 0 -8 -4 -5 -8 3 -5 7 -35 11 -68 3 -32 7 -72 9 -89 2 -16
7 -59 11 -95 4 -36 9 -68 11 -71 4 -7 16 -67 19 -99 1 -14 5 -32 8 -40 4 -8 8
-26 10 -40 2 -14 7 -32 10 -40 4 -8 11 -35 16 -60 10 -45 64 -218 80 -255 5
-11 19 -45 31 -75 11 -30 25 -64 29 -75 17 -39 145 -300 150 -305 3 -3 14 -21
24 -40 27 -54 144 -243 229 -370 174 -259 402 -513 633 -705 33 -28 71 -60 85
-72 14 -13 28 -23 31 -23 3 0 19 -11 35 -25 32 -28 230 -165 238 -165 3 0 24
-13 48 -29 147 -98 523 -277 738 -351 36 -12 72 -25 80 -28 8 -3 17 -6 20 -6
3 -1 10 -4 15 -7 6 -4 26 -10 45 -14 19 -4 40 -11 45 -15 6 -4 21 -10 35 -13
14 -3 63 -17 110 -31 47 -14 88 -26 92 -26 6 0 10 9 65 165 31 90 76 249 89
315 2 14 7 36 10 50 4 14 8 35 9 47 2 13 6 40 9 60 4 21 9 61 12 88 7 59 7
325 0 375 -2 19 -7 57 -11 83 -7 57 -48 219 -75 298 -72 211 -220 497 -381
736 -27 39 -49 77 -49 83 0 5 -3 10 -8 10 -4 0 -16 17 -27 37 -11 20 -25 41
-31 47 -5 6 -38 54 -72 106 -34 52 -68 104 -76 115 -31 42 -166 247 -166 252
0 3 -12 22 -27 42 -16 20 -32 44 -38 53 -19 33 -229 353 -235 358 -3 3 -21 30
-40 60 -19 30 -68 107 -109 170 -42 63 -78 120 -81 125 -5 9 -80 133 -101 165
-61 95 -276 539 -283 585 -1 6 -5 16 -10 23 -4 7 -11 25 -16 40 -5 15 -24 72
-43 127 -20 55 -33 103 -31 107 3 4 1 8 -4 8 -5 0 -9 6 -9 13 0 6 -12 53 -26
102 -27 99 -60 244 -76 345 -6 36 -13 79 -16 95 -7 44 -16 114 -20 165 -2 25
-4 45 -5 45 -3 0 -11 178 -12 298 -1 70 -3 127 -5 127 -1 0 -26 -28 -54 -62z"/>
</g>
</svg>
